%
M48
M72
T01C0.0280
T02C0.0320
T03C0.0354
T04C0.0380
T05C0.0400
T06C0.0433
T07C0.0886
T08C0.1260
%
T01
X16280Y4980
X24380Y6480
X21680Y12280
X19380Y15880
X21880Y17980
X21680Y19280
X23180Y19280
X18880Y18480
X17880Y18780
X15080Y14980
X8880Y14980
X13380Y11080
X28380Y18280
T02
X1180Y2180
X2180Y2180
X3680Y2180
X4680Y2180
X4680Y18180
X1680Y18180
T03
X6180Y4180
X6180Y3230
X6180Y2330
X9180Y2330
X9180Y3230
X9180Y4180
T04
X9180Y7180
X8180Y7180
X7180Y7180
X6180Y7180
X5180Y7180
X4180Y7180
X3180Y7180
X2180Y7180
X1180Y7180
X10180Y7180
X11180Y7180
X12180Y7180
X13180Y7180
X14180Y7180
X14180Y8180
X14180Y9180
X14180Y10180
X14180Y11180
X14180Y12180
X14180Y13180
X13180Y13180
X12180Y13180
X11180Y13180
X10180Y13180
X9180Y13180
X8180Y13180
X7180Y13180
X6180Y13180
X5180Y13180
X4180Y13180
X3180Y13180
X2180Y13180
X1180Y13180
T05
X2180Y14180
X3180Y14180
X4180Y14180
X5180Y14180
X6180Y14180
X7180Y14180
X8180Y14180
X9180Y14180
X10180Y14180
X11180Y14180
X12180Y14180
X13180Y14180
X14180Y14180
X13680Y17180
X12680Y17180
X14680Y17180
X15680Y17180
X16680Y17180
X17680Y17180
X21180Y17180
X22180Y17180
X23180Y17180
X23180Y20130
X22180Y20230
X21180Y20130
X20180Y20230
X19180Y20130
X18180Y20230
X16680Y20130
X15680Y20230
X14680Y20130
X13680Y20230
X12680Y20130
X11680Y20230
X10680Y20130
X9680Y20230
X8180Y18680
X7180Y18680
X6180Y18680
X6180Y17680
X7180Y17680
X8180Y17680
X8180Y16680
X7180Y16680
X6180Y16680
X3680Y19180
X2680Y19180
X1680Y19180
X24180Y20230
X25180Y20130
X27180Y20230
X28180Y20130
X29180Y20230
X30180Y20130
X31180Y20230
X32180Y20130
X33180Y20230
X34180Y20130
X37110Y20180
X38250Y20180
X38230Y19180
X37230Y19180
X37130Y18180
X38130Y18180
X38230Y17180
X37230Y17180
X37130Y16180
X38130Y16180
X38230Y15180
X37230Y15180
X37130Y14180
X38130Y14180
X38230Y13180
X37230Y13180
X37130Y12180
X38130Y12180
X38230Y11180
X37230Y11180
X37130Y10180
X38130Y10180
X38230Y9180
X37230Y9180
X37130Y8180
X38130Y8180
X38230Y7180
X37230Y7180
X37130Y6180
X38130Y6180
X38230Y5180
X37230Y5180
X37130Y4180
X38130Y4180
X38250Y3180
X37110Y3180
X36180Y1130
X35180Y1230
X34180Y1130
X33180Y1230
X32180Y1130
X31180Y1230
X30180Y1130
X29180Y1230
X27180Y1130
X26180Y1230
X25180Y1130
X24180Y1230
X23180Y1130
X22180Y1230
X21180Y1130
X20180Y1230
X18180Y1080
X17180Y1180
X16180Y1080
X15180Y1180
X14180Y1080
X13180Y1180
X12070Y800
X10290Y800
X10290Y3360
X12070Y3360
X12180Y6180
X11180Y6180
X10180Y6180
X9180Y6180
X8180Y6180
X7180Y6180
X6180Y6180
X5180Y6180
X4180Y6180
X3180Y6180
X2180Y6180
X13180Y6180
X14180Y6180
T06
X17196Y5184
X18180Y5184
X19164Y5184
X22196Y5184
X23180Y5184
X24164Y5184
X27196Y5184
X28180Y5184
X29164Y5184
X32196Y5174
X33180Y5174
X34164Y5174
X34164Y11184
X33180Y11184
X32196Y11184
X29164Y11184
X28180Y11184
X27196Y11184
X24164Y11174
X23180Y11174
X22196Y11174
X19164Y11174
X18180Y11174
X17196Y11174
T07
X16408Y13930
X19952Y13930
X21408Y13930
X24952Y13930
X26408Y13940
X29952Y13940
X31408Y13940
X34952Y13940
X34952Y7930
X31408Y7930
X29952Y7940
X26408Y7940
X24952Y7940
X21408Y7940
X19952Y7940
X16408Y7940
T08
X6180Y1180
X38180Y1180
X35680Y20180
X6180Y20180
M30
