G75*
G70*
%OFA0B0*%
%FSLAX24Y24*%
%IPPOS*%
%LPD*%
%AMOC8*
5,1,8,0,0,1.08239X$1,22.5*
%
%ADD10C,0.0000*%
D10*
X016093Y007527D02*
X016723Y007527D01*
X016723Y008353D01*
X016093Y008353D01*
X016093Y007527D01*
X019637Y007527D02*
X020267Y007527D01*
X020267Y008353D01*
X019637Y008353D01*
X019637Y007527D01*
X021093Y007527D02*
X021723Y007527D01*
X021723Y008353D01*
X021093Y008353D01*
X021093Y007527D01*
X024637Y007527D02*
X025267Y007527D01*
X025267Y008353D01*
X024637Y008353D01*
X024637Y007527D01*
X026093Y007527D02*
X026723Y007527D01*
X026723Y008353D01*
X026093Y008353D01*
X026093Y007527D01*
X029637Y007527D02*
X030267Y007527D01*
X030267Y008353D01*
X029637Y008353D01*
X029637Y007527D01*
X031093Y007517D02*
X031093Y008343D01*
X031723Y008343D01*
X031723Y007517D01*
X031093Y007517D01*
X034637Y007517D02*
X035267Y007517D01*
X035267Y008343D01*
X034637Y008343D01*
X034637Y007517D01*
X034637Y013527D02*
X035267Y013527D01*
X035267Y014353D01*
X034637Y014353D01*
X034637Y013527D01*
X031723Y013527D02*
X031093Y013527D01*
X031093Y014353D01*
X031723Y014353D01*
X031723Y013527D01*
X030267Y013527D02*
X029637Y013527D01*
X029637Y014353D01*
X030267Y014353D01*
X030267Y013527D01*
X026723Y013527D02*
X026093Y013527D01*
X026093Y014353D01*
X026723Y014353D01*
X026723Y013527D01*
X025267Y013517D02*
X025267Y014343D01*
X024637Y014343D01*
X024637Y013517D01*
X025267Y013517D01*
X021723Y013517D02*
X021093Y013517D01*
X021093Y014343D01*
X021723Y014343D01*
X021723Y013517D01*
X020267Y013517D02*
X020267Y014343D01*
X019637Y014343D01*
X019637Y013517D01*
X020267Y013517D01*
X016723Y013517D02*
X016093Y013517D01*
X016093Y014343D01*
X016723Y014343D01*
X016723Y013517D01*
M02*
