G75*
G70*
%OFA0B0*%
%FSLAX24Y24*%
%IPPOS*%
%LPD*%
%AMOC8*
5,1,8,0,0,1.08239X$1,22.5*
%
%ADD10C,0.1340*%
%ADD11R,0.0820X0.0820*%
%ADD12C,0.0820*%
%ADD13C,0.0720*%
%ADD14C,0.0753*%
%ADD15R,0.1366X0.1366*%
%ADD16C,0.0700*%
%ADD17OC8,0.0720*%
%ADD18C,0.0740*%
%ADD19OC8,0.0740*%
%ADD20C,0.0560*%
D10*
X006180Y001180D03*
X038180Y001180D03*
X035680Y020180D03*
X006180Y020180D03*
D11*
X016680Y020130D03*
X025180Y020130D03*
X027180Y020230D03*
X029180Y001230D03*
X020180Y001230D03*
D12*
X001180Y002180D03*
X002180Y002180D03*
X003680Y002180D03*
X004680Y002180D03*
X006180Y002330D03*
X006180Y003230D03*
X006180Y004180D03*
X009180Y004180D03*
X009180Y003230D03*
X009180Y002330D03*
X013180Y001180D03*
X014180Y001080D03*
X015180Y001180D03*
X016180Y001080D03*
X017180Y001180D03*
X018180Y001080D03*
X021180Y001130D03*
X022180Y001230D03*
X023180Y001130D03*
X024180Y001230D03*
X025180Y001130D03*
X026180Y001230D03*
X027180Y001130D03*
X030180Y001130D03*
X031180Y001230D03*
X032180Y001130D03*
X033180Y001230D03*
X034180Y001130D03*
X035180Y001230D03*
X036180Y001130D03*
X037110Y003180D03*
X038250Y003180D03*
X038130Y004180D03*
X037130Y004180D03*
X037230Y005180D03*
X038230Y005180D03*
X038130Y006180D03*
X037130Y006180D03*
X037230Y007180D03*
X038230Y007180D03*
X038130Y008180D03*
X037130Y008180D03*
X037230Y009180D03*
X038230Y009180D03*
X038130Y010180D03*
X037130Y010180D03*
X037230Y011180D03*
X038230Y011180D03*
X038130Y012180D03*
X037130Y012180D03*
X037230Y013180D03*
X038230Y013180D03*
X038130Y014180D03*
X037130Y014180D03*
X037230Y015180D03*
X038230Y015180D03*
X038130Y016180D03*
X037130Y016180D03*
X037230Y017180D03*
X038230Y017180D03*
X038130Y018180D03*
X037130Y018180D03*
X037230Y019180D03*
X038230Y019180D03*
X038250Y020180D03*
X037110Y020180D03*
X034180Y020130D03*
X033180Y020230D03*
X032180Y020130D03*
X031180Y020230D03*
X030180Y020130D03*
X029180Y020230D03*
X028180Y020130D03*
X024180Y020230D03*
X023180Y020130D03*
X022180Y020230D03*
X021180Y020130D03*
X020180Y020230D03*
X019180Y020130D03*
X018180Y020230D03*
X015680Y020230D03*
X014680Y020130D03*
X013680Y020230D03*
X012680Y020130D03*
X011680Y020230D03*
X010680Y020130D03*
X009680Y020230D03*
D13*
X008180Y018680D03*
X007180Y018680D03*
X006180Y018680D03*
X006180Y017680D03*
X007180Y017680D03*
X008180Y017680D03*
X008180Y016680D03*
X007180Y016680D03*
X006180Y016680D03*
X003680Y019180D03*
X002680Y019180D03*
X001680Y019180D03*
X021180Y017180D03*
X022180Y017180D03*
X023180Y017180D03*
X012070Y003360D03*
X010290Y003360D03*
X010290Y000800D03*
X012070Y000800D03*
D14*
X017196Y005184D03*
X018180Y005184D03*
X019164Y005184D03*
X022196Y005184D03*
X023180Y005184D03*
X024164Y005184D03*
X027196Y005184D03*
X028180Y005184D03*
X029164Y005184D03*
X032196Y005174D03*
X033180Y005174D03*
X034164Y005174D03*
X034164Y011184D03*
X033180Y011184D03*
X032196Y011184D03*
X029164Y011184D03*
X028180Y011184D03*
X027196Y011184D03*
X024164Y011174D03*
X023180Y011174D03*
X022196Y011174D03*
X019164Y011174D03*
X018180Y011174D03*
X017196Y011174D03*
D15*
X016408Y013930D03*
X019952Y013930D03*
X021408Y013930D03*
X024952Y013930D03*
X026408Y013940D03*
X029952Y013940D03*
X031408Y013940D03*
X034952Y013940D03*
X034952Y007930D03*
X031408Y007930D03*
X029952Y007940D03*
X026408Y007940D03*
X024952Y007940D03*
X021408Y007940D03*
X019952Y007940D03*
X016408Y007940D03*
D16*
X014180Y008180D03*
X014180Y007180D03*
X013180Y007180D03*
X012180Y007180D03*
X011180Y007180D03*
X010180Y007180D03*
X009180Y007180D03*
X008180Y007180D03*
X007180Y007180D03*
X006180Y007180D03*
X005180Y007180D03*
X004180Y007180D03*
X003180Y007180D03*
X002180Y007180D03*
X001180Y007180D03*
X001180Y013180D03*
X002180Y013180D03*
X003180Y013180D03*
X004180Y013180D03*
X005180Y013180D03*
X006180Y013180D03*
X007180Y013180D03*
X008180Y013180D03*
X009180Y013180D03*
X010180Y013180D03*
X011180Y013180D03*
X012180Y013180D03*
X013180Y013180D03*
X014180Y013180D03*
X014180Y012180D03*
X014180Y011180D03*
X014180Y010180D03*
X014180Y009180D03*
D17*
X013680Y017180D03*
X012680Y017180D03*
X014680Y017180D03*
X015680Y017180D03*
X016680Y017180D03*
X017680Y017180D03*
D18*
X014180Y014180D03*
X013180Y014180D03*
X012180Y014180D03*
X011180Y014180D03*
X010180Y014180D03*
X009180Y014180D03*
X008180Y014180D03*
X007180Y014180D03*
X006180Y014180D03*
X005180Y014180D03*
X004180Y014180D03*
X003180Y014180D03*
X002180Y014180D03*
X002180Y006180D03*
X003180Y006180D03*
X004180Y006180D03*
X005180Y006180D03*
X006180Y006180D03*
X007180Y006180D03*
X008180Y006180D03*
X009180Y006180D03*
X010180Y006180D03*
X011180Y006180D03*
X012180Y006180D03*
X013180Y006180D03*
X014180Y006180D03*
D19*
X004680Y018180D03*
X001680Y018180D03*
D20*
X008880Y014980D03*
X015080Y014980D03*
X019380Y015880D03*
X021880Y017980D03*
X021680Y019280D03*
X023180Y019280D03*
X018880Y018480D03*
X017880Y018780D03*
X028380Y018280D03*
X021680Y012280D03*
X013380Y011080D03*
X024380Y006480D03*
X016280Y004980D03*
M02*
