G75*
G70*
%OFA0B0*%
%FSLAX24Y24*%
%IPPOS*%
%LPD*%
%AMOC8*
5,1,8,0,0,1.08239X$1,22.5*
%
%ADD10C,0.0060*%
%ADD11R,0.0740X0.0740*%
%ADD12C,0.0740*%
%ADD13C,0.0640*%
%ADD14C,0.0673*%
%ADD15R,0.1286X0.1286*%
%ADD16C,0.0620*%
%ADD17OC8,0.0640*%
%ADD18C,0.0660*%
%ADD19OC8,0.0660*%
%ADD20C,0.0140*%
%ADD21C,0.0160*%
%ADD22C,0.0480*%
D10*
X005244Y007693D02*
X005350Y007693D01*
X005244Y007693D02*
X005137Y007800D01*
X005137Y008334D01*
X005564Y008334D02*
X005564Y008014D01*
X005457Y007907D01*
X005137Y007907D01*
X005781Y007907D02*
X006208Y007907D01*
X005781Y008334D01*
X006208Y008334D01*
X006426Y008334D02*
X006853Y007907D01*
X006426Y007907D01*
X006426Y008334D02*
X006853Y008334D01*
X007071Y008334D02*
X007071Y007907D01*
X007391Y007907D01*
X007498Y008014D01*
X007498Y008334D01*
X007715Y008547D02*
X008142Y008547D01*
X008142Y007907D01*
X008142Y008227D02*
X007929Y008227D01*
X009004Y008334D02*
X009431Y007907D01*
X009649Y008120D02*
X010076Y008120D01*
X010076Y008014D02*
X010076Y008227D01*
X009969Y008334D01*
X009755Y008334D01*
X009649Y008227D01*
X009649Y008120D01*
X009755Y007907D02*
X009969Y007907D01*
X010076Y008014D01*
X010292Y007907D02*
X010505Y007907D01*
X010399Y007907D02*
X010399Y008547D01*
X010505Y008547D01*
X010723Y008334D02*
X010723Y007907D01*
X010723Y008227D02*
X011150Y008227D01*
X011150Y008334D02*
X011150Y007907D01*
X011150Y008334D02*
X010936Y008547D01*
X010723Y008334D01*
X009431Y008334D02*
X009004Y007907D01*
X004275Y007907D02*
X004061Y008120D01*
X003848Y007907D01*
X003848Y008547D01*
X003630Y008227D02*
X003523Y008334D01*
X003310Y008334D01*
X003203Y008227D01*
X003203Y008014D01*
X003310Y007907D01*
X003523Y007907D01*
X003630Y008014D01*
X003630Y008227D01*
X002986Y008334D02*
X002665Y008334D01*
X002559Y008227D01*
X002559Y008014D01*
X002665Y007907D01*
X002986Y007907D01*
X002986Y008547D01*
X002341Y008547D02*
X002341Y007907D01*
X002021Y007907D01*
X001914Y008014D01*
X001914Y008227D01*
X002021Y008334D01*
X002341Y008334D01*
X001697Y008547D02*
X001590Y008547D01*
X001590Y007907D01*
X001697Y007907D02*
X001483Y007907D01*
X001267Y008014D02*
X001267Y008227D01*
X001160Y008334D01*
X000947Y008334D01*
X000840Y008227D01*
X000840Y008120D01*
X001267Y008120D01*
X001267Y008014D02*
X001160Y007907D01*
X000947Y007907D01*
X004275Y007907D02*
X004275Y008547D01*
D11*
X020180Y001230D03*
X029180Y001230D03*
X025180Y020130D03*
X027180Y020230D03*
X016680Y020130D03*
D12*
X015680Y020230D03*
X014680Y020130D03*
X013680Y020230D03*
X012680Y020130D03*
X011680Y020230D03*
X010680Y020130D03*
X009680Y020230D03*
X018180Y020230D03*
X019180Y020130D03*
X020180Y020230D03*
X021180Y020130D03*
X022180Y020230D03*
X023180Y020130D03*
X024180Y020230D03*
X028180Y020130D03*
X029180Y020230D03*
X030180Y020130D03*
X031180Y020230D03*
X032180Y020130D03*
X033180Y020230D03*
X034180Y020130D03*
X037110Y020180D03*
X038250Y020180D03*
X038230Y019180D03*
X037230Y019180D03*
X037130Y018180D03*
X038130Y018180D03*
X038230Y017180D03*
X037230Y017180D03*
X037130Y016180D03*
X038130Y016180D03*
X038230Y015180D03*
X037230Y015180D03*
X037130Y014180D03*
X038130Y014180D03*
X038230Y013180D03*
X037230Y013180D03*
X037130Y012180D03*
X038130Y012180D03*
X038230Y011180D03*
X037230Y011180D03*
X037130Y010180D03*
X038130Y010180D03*
X038230Y009180D03*
X037230Y009180D03*
X037130Y008180D03*
X038130Y008180D03*
X038230Y007180D03*
X037230Y007180D03*
X037130Y006180D03*
X038130Y006180D03*
X038230Y005180D03*
X037230Y005180D03*
X037130Y004180D03*
X038130Y004180D03*
X038250Y003180D03*
X037110Y003180D03*
X036180Y001130D03*
X035180Y001230D03*
X034180Y001130D03*
X033180Y001230D03*
X032180Y001130D03*
X031180Y001230D03*
X030180Y001130D03*
X027180Y001130D03*
X026180Y001230D03*
X025180Y001130D03*
X024180Y001230D03*
X023180Y001130D03*
X022180Y001230D03*
X021180Y001130D03*
X018180Y001080D03*
X017180Y001180D03*
X016180Y001080D03*
X015180Y001180D03*
X014180Y001080D03*
X013180Y001180D03*
X009180Y002330D03*
X009180Y003230D03*
X009180Y004180D03*
X006180Y004180D03*
X006180Y003230D03*
X006180Y002330D03*
X004680Y002180D03*
X003680Y002180D03*
X002180Y002180D03*
X001180Y002180D03*
D13*
X010290Y003360D03*
X012070Y003360D03*
X012070Y000800D03*
X010290Y000800D03*
X008180Y016680D03*
X007180Y016680D03*
X006180Y016680D03*
X006180Y017680D03*
X007180Y017680D03*
X008180Y017680D03*
X008180Y018680D03*
X007180Y018680D03*
X006180Y018680D03*
X003680Y019180D03*
X002680Y019180D03*
X001680Y019180D03*
X021180Y017180D03*
X022180Y017180D03*
X023180Y017180D03*
D14*
X023180Y011174D03*
X022196Y011174D03*
X024164Y011174D03*
X027196Y011184D03*
X028180Y011184D03*
X029164Y011184D03*
X032196Y011184D03*
X033180Y011184D03*
X034164Y011184D03*
X034164Y005174D03*
X033180Y005174D03*
X032196Y005174D03*
X029164Y005184D03*
X028180Y005184D03*
X027196Y005184D03*
X024164Y005184D03*
X023180Y005184D03*
X022196Y005184D03*
X019164Y005184D03*
X018180Y005184D03*
X017196Y005184D03*
X017196Y011174D03*
X018180Y011174D03*
X019164Y011174D03*
D15*
X019952Y013930D03*
X021408Y013930D03*
X024952Y013930D03*
X026408Y013940D03*
X029952Y013940D03*
X031408Y013940D03*
X034952Y013940D03*
X034952Y007930D03*
X031408Y007930D03*
X029952Y007940D03*
X026408Y007940D03*
X024952Y007940D03*
X021408Y007940D03*
X019952Y007940D03*
X016408Y007940D03*
X016408Y013930D03*
D16*
X014180Y013180D03*
X013180Y013180D03*
X012180Y013180D03*
X011180Y013180D03*
X010180Y013180D03*
X009180Y013180D03*
X008180Y013180D03*
X007180Y013180D03*
X006180Y013180D03*
X005180Y013180D03*
X004180Y013180D03*
X003180Y013180D03*
X002180Y013180D03*
X001180Y013180D03*
X001180Y007180D03*
X002180Y007180D03*
X003180Y007180D03*
X004180Y007180D03*
X005180Y007180D03*
X006180Y007180D03*
X007180Y007180D03*
X008180Y007180D03*
X009180Y007180D03*
X010180Y007180D03*
X011180Y007180D03*
X012180Y007180D03*
X013180Y007180D03*
X014180Y007180D03*
X014180Y008180D03*
X014180Y009180D03*
X014180Y010180D03*
X014180Y011180D03*
X014180Y012180D03*
D17*
X013680Y017180D03*
X012680Y017180D03*
X014680Y017180D03*
X015680Y017180D03*
X016680Y017180D03*
X017680Y017180D03*
D18*
X014180Y014180D03*
X013180Y014180D03*
X012180Y014180D03*
X011180Y014180D03*
X010180Y014180D03*
X009180Y014180D03*
X008180Y014180D03*
X007180Y014180D03*
X006180Y014180D03*
X005180Y014180D03*
X004180Y014180D03*
X003180Y014180D03*
X002180Y014180D03*
X002180Y006180D03*
X003180Y006180D03*
X004180Y006180D03*
X005180Y006180D03*
X006180Y006180D03*
X007180Y006180D03*
X008180Y006180D03*
X009180Y006180D03*
X010180Y006180D03*
X011180Y006180D03*
X012180Y006180D03*
X013180Y006180D03*
X014180Y006180D03*
D19*
X004680Y018180D03*
X001680Y018180D03*
D20*
X001980Y018180D01*
X004580Y015580D01*
X019080Y015580D01*
X019380Y015880D01*
X018480Y016380D02*
X021580Y016380D01*
X022180Y016980D01*
X022180Y017180D01*
X022380Y017980D02*
X023180Y017180D01*
X022380Y017980D02*
X022380Y018480D01*
X019680Y018480D01*
X018180Y019980D01*
X018180Y020230D01*
X017880Y018780D02*
X010980Y018780D01*
X010380Y019380D01*
X007880Y019380D01*
X007180Y018680D01*
X007680Y018180D02*
X017280Y018180D01*
X017380Y018280D01*
X018680Y018280D01*
X018880Y018480D01*
X017480Y017980D02*
X021880Y017980D01*
X022180Y018780D02*
X032880Y018780D01*
X034180Y020080D01*
X034180Y020130D01*
X033180Y020230D02*
X033180Y019980D01*
X032480Y019280D01*
X023180Y019280D01*
X022180Y018780D02*
X021680Y019280D01*
X018480Y016380D02*
X017780Y017080D01*
X017680Y017180D01*
X017680Y017080D02*
X017780Y017080D01*
X017680Y017080D02*
X016880Y016280D01*
X008580Y016280D01*
X008180Y016680D01*
X007380Y015880D01*
X005880Y015880D01*
X004880Y016880D01*
X004880Y018180D01*
X004680Y018180D01*
X007180Y017680D02*
X007680Y018180D01*
X008880Y014980D02*
X015080Y014980D01*
X016480Y012880D02*
X021980Y012880D01*
X027380Y018280D01*
X028380Y018280D01*
X017480Y017980D02*
X016680Y017180D01*
X016480Y012880D02*
X015280Y011680D01*
X013980Y011680D01*
X013380Y011080D01*
X014380Y008680D02*
X016380Y010680D01*
X016380Y012280D01*
X021680Y012280D01*
X021180Y011980D02*
X021980Y011180D01*
X022196Y011174D01*
X022180Y011180D01*
X021980Y011180D01*
X022780Y010380D01*
X026380Y010380D01*
X028880Y010380D01*
X028880Y005980D01*
X031380Y005980D01*
X032180Y005180D01*
X032196Y005174D01*
X033180Y005980D02*
X034480Y005980D01*
X034980Y005480D01*
X034980Y001280D01*
X035180Y001280D01*
X035180Y001230D01*
X033180Y001280D02*
X033180Y001230D01*
X033180Y001280D02*
X031780Y002680D01*
X028180Y002680D01*
X028180Y005184D01*
X027780Y005980D02*
X027280Y005480D01*
X027280Y005280D01*
X027196Y005184D01*
X027780Y005980D02*
X021880Y005980D01*
X021680Y005780D01*
X022180Y005280D01*
X022196Y005184D01*
X023180Y005184D02*
X023180Y002380D01*
X031180Y002380D01*
X032180Y001380D01*
X032180Y001130D01*
X030280Y001180D02*
X030180Y001180D01*
X030180Y001130D01*
X030280Y001180D02*
X030280Y001480D01*
X029680Y002080D01*
X023080Y002080D01*
X021680Y003480D01*
X018180Y003480D01*
X018180Y005184D01*
X017780Y005980D02*
X017280Y005480D01*
X017280Y005280D01*
X017196Y005184D01*
X016280Y004980D02*
X019180Y002080D01*
X020680Y002080D01*
X021280Y001480D01*
X021280Y001180D01*
X021180Y001180D01*
X021180Y001130D01*
X015180Y001180D02*
X014380Y001980D01*
X010680Y001980D01*
X009580Y003080D01*
X009280Y003080D01*
X009180Y003180D01*
X009180Y003230D01*
X009180Y003180D02*
X008880Y003180D01*
X008780Y003080D01*
X007180Y003080D01*
X006580Y002480D01*
X006280Y002480D01*
X006180Y002380D01*
X006180Y002330D01*
X005780Y003080D02*
X005580Y003080D01*
X004680Y002180D01*
X005780Y003080D02*
X005880Y003180D01*
X006180Y003180D01*
X006180Y003230D01*
X010290Y000800D02*
X010380Y000880D01*
X011080Y001580D01*
X012780Y001580D01*
X013180Y001180D01*
X021480Y005980D02*
X021680Y005780D01*
X021480Y005980D02*
X017780Y005980D01*
X014380Y008680D02*
X012680Y008680D01*
X011180Y007180D01*
X014180Y009180D02*
X007180Y009180D01*
X003180Y013180D01*
X017196Y011174D02*
X017280Y011180D01*
X018080Y011980D01*
X021180Y011980D01*
X018180Y011174D02*
X018180Y011080D01*
X020280Y008980D01*
X023211Y008980D01*
X023211Y007660D01*
X024380Y006480D01*
X027780Y005980D02*
X028880Y005980D01*
X033180Y005980D02*
X033180Y011184D01*
X032196Y011184D02*
X032180Y011180D01*
X031380Y010380D01*
X028880Y010380D01*
X027196Y011184D02*
X027180Y011180D01*
X026380Y010380D01*
D21*
X000500Y000500D02*
X000500Y020860D01*
X005573Y020860D01*
X005409Y020695D01*
X005270Y020361D01*
X005270Y019999D01*
X005409Y019665D01*
X005665Y019409D01*
X005999Y019270D01*
X006361Y019270D01*
X006695Y019409D01*
X006951Y019665D01*
X007090Y019999D01*
X007090Y020361D01*
X006951Y020695D01*
X006787Y020860D01*
X035073Y020860D01*
X034909Y020695D01*
X034770Y020361D01*
X034770Y019999D01*
X034909Y019665D01*
X035165Y019409D01*
X035499Y019270D01*
X035861Y019270D01*
X036195Y019409D01*
X036451Y019665D01*
X036579Y019973D01*
X036627Y019857D01*
X036787Y019697D01*
X036896Y019652D01*
X036747Y019503D01*
X036660Y019293D01*
X036660Y019067D01*
X036747Y018857D01*
X036902Y018702D01*
X036807Y018663D01*
X036647Y018503D01*
X036560Y018293D01*
X036560Y018067D01*
X036647Y017857D01*
X036807Y017697D01*
X036902Y017658D01*
X036747Y017503D01*
X036660Y017293D01*
X036660Y017067D01*
X036747Y016857D01*
X036902Y016702D01*
X036807Y016663D01*
X036647Y016503D01*
X036560Y016293D01*
X036560Y016067D01*
X036647Y015857D01*
X036807Y015697D01*
X036902Y015658D01*
X036747Y015503D01*
X036660Y015293D01*
X036660Y015067D01*
X036747Y014857D01*
X036902Y014702D01*
X036807Y014663D01*
X036647Y014503D01*
X036560Y014293D01*
X036560Y014067D01*
X036647Y013857D01*
X036807Y013697D01*
X036902Y013658D01*
X036747Y013503D01*
X036660Y013293D01*
X036660Y013067D01*
X036747Y012857D01*
X036902Y012702D01*
X036807Y012663D01*
X036647Y012503D01*
X036560Y012293D01*
X036560Y012067D01*
X036647Y011857D01*
X036807Y011697D01*
X036902Y011658D01*
X036747Y011503D01*
X036660Y011293D01*
X036660Y011067D01*
X036747Y010857D01*
X036902Y010702D01*
X036807Y010663D01*
X036647Y010503D01*
X036560Y010293D01*
X036560Y010067D01*
X036647Y009857D01*
X036807Y009697D01*
X036902Y009658D01*
X036747Y009503D01*
X036660Y009293D01*
X036660Y009067D01*
X036747Y008857D01*
X036902Y008702D01*
X036807Y008663D01*
X036647Y008503D01*
X036560Y008293D01*
X036560Y008067D01*
X036647Y007857D01*
X036807Y007697D01*
X036902Y007658D01*
X036747Y007503D01*
X036660Y007293D01*
X036660Y007067D01*
X036747Y006857D01*
X036902Y006702D01*
X036807Y006663D01*
X036647Y006503D01*
X036560Y006293D01*
X036560Y006067D01*
X036647Y005857D01*
X036807Y005697D01*
X036902Y005658D01*
X036747Y005503D01*
X036660Y005293D01*
X036660Y005067D01*
X036747Y004857D01*
X036902Y004702D01*
X036807Y004663D01*
X036647Y004503D01*
X036560Y004293D01*
X036560Y004067D01*
X036647Y003857D01*
X036807Y003697D01*
X036865Y003673D01*
X036822Y003650D01*
X036752Y003600D01*
X036690Y003538D01*
X036640Y003468D01*
X036600Y003391D01*
X036574Y003309D01*
X036560Y003223D01*
X036560Y003200D01*
X037090Y003200D01*
X037090Y003160D01*
X037130Y003160D01*
X037130Y003200D01*
X037660Y003200D01*
X037660Y003223D01*
X037646Y003309D01*
X037620Y003391D01*
X037580Y003468D01*
X037530Y003538D01*
X037468Y003600D01*
X037398Y003650D01*
X037373Y003664D01*
X037453Y003697D01*
X037613Y003857D01*
X037630Y003898D01*
X037647Y003857D01*
X037807Y003697D01*
X037946Y003639D01*
X037892Y003600D01*
X037830Y003538D01*
X037780Y003468D01*
X037740Y003391D01*
X037714Y003309D01*
X037700Y003223D01*
X037700Y003200D01*
X038230Y003200D01*
X038230Y003160D01*
X038270Y003160D01*
X038270Y003200D01*
X038800Y003200D01*
X038800Y003223D01*
X038786Y003309D01*
X038760Y003391D01*
X038720Y003468D01*
X038670Y003538D01*
X038608Y003600D01*
X038538Y003650D01*
X038461Y003690D01*
X038447Y003694D01*
X038453Y003697D01*
X038613Y003857D01*
X038700Y004067D01*
X038700Y004293D01*
X038613Y004503D01*
X038458Y004658D01*
X038553Y004697D01*
X038713Y004857D01*
X038800Y005067D01*
X038800Y005293D01*
X038713Y005503D01*
X038553Y005663D01*
X038458Y005702D01*
X038613Y005857D01*
X038700Y006067D01*
X038700Y006293D01*
X038613Y006503D01*
X038458Y006658D01*
X038553Y006697D01*
X038713Y006857D01*
X038800Y007067D01*
X038800Y007293D01*
X038713Y007503D01*
X038553Y007663D01*
X038458Y007702D01*
X038613Y007857D01*
X038700Y008067D01*
X038700Y008293D01*
X038613Y008503D01*
X038458Y008658D01*
X038553Y008697D01*
X038713Y008857D01*
X038800Y009067D01*
X038800Y009293D01*
X038713Y009503D01*
X038553Y009663D01*
X038458Y009702D01*
X038613Y009857D01*
X038700Y010067D01*
X038700Y010293D01*
X038613Y010503D01*
X038458Y010658D01*
X038553Y010697D01*
X038713Y010857D01*
X038800Y011067D01*
X038800Y011293D01*
X038713Y011503D01*
X038553Y011663D01*
X038458Y011702D01*
X038613Y011857D01*
X038700Y012067D01*
X038700Y012293D01*
X038613Y012503D01*
X038458Y012658D01*
X038553Y012697D01*
X038713Y012857D01*
X038800Y013067D01*
X038800Y013293D01*
X038713Y013503D01*
X038553Y013663D01*
X038458Y013702D01*
X038613Y013857D01*
X038700Y014067D01*
X038700Y014293D01*
X038613Y014503D01*
X038458Y014658D01*
X038553Y014697D01*
X038713Y014857D01*
X038800Y015067D01*
X038800Y015293D01*
X038713Y015503D01*
X038553Y015663D01*
X038458Y015702D01*
X038613Y015857D01*
X038700Y016067D01*
X038700Y016293D01*
X038613Y016503D01*
X038458Y016658D01*
X038553Y016697D01*
X038713Y016857D01*
X038800Y017067D01*
X038800Y017293D01*
X038713Y017503D01*
X038553Y017663D01*
X038458Y017702D01*
X038613Y017857D01*
X038700Y018067D01*
X038700Y018293D01*
X038613Y018503D01*
X038458Y018658D01*
X038553Y018697D01*
X038713Y018857D01*
X038800Y019067D01*
X038800Y019293D01*
X038713Y019503D01*
X038553Y019663D01*
X038522Y019676D01*
X038573Y019697D01*
X038733Y019857D01*
X038820Y020067D01*
X038820Y020087D01*
X038860Y020047D01*
X038860Y016116D01*
X038909Y015999D01*
X038999Y015909D01*
X039860Y015047D01*
X039860Y001813D01*
X039090Y001042D01*
X039090Y001361D01*
X038951Y001695D01*
X038695Y001951D01*
X038361Y002090D01*
X037999Y002090D01*
X037665Y001951D01*
X037409Y001695D01*
X037270Y001361D01*
X037270Y000999D01*
X037409Y000665D01*
X037573Y000500D01*
X012470Y000500D01*
X012498Y000538D01*
X012533Y000608D01*
X012558Y000683D01*
X012570Y000761D01*
X012570Y000780D01*
X012090Y000780D01*
X012090Y000820D01*
X012050Y000820D01*
X012050Y001300D01*
X012031Y001300D01*
X011953Y001288D01*
X011878Y001263D01*
X011808Y001228D01*
X011744Y001181D01*
X011689Y001126D01*
X011642Y001062D01*
X011607Y000992D01*
X011582Y000917D01*
X011570Y000839D01*
X011570Y000820D01*
X012050Y000820D01*
X012050Y000780D01*
X011570Y000780D01*
X011570Y000761D01*
X011582Y000683D01*
X011607Y000608D01*
X011642Y000538D01*
X011670Y000500D01*
X010725Y000500D01*
X010731Y000505D01*
X010810Y000697D01*
X010810Y000903D01*
X010803Y000921D01*
X011192Y001310D01*
X012617Y001310D01*
X012610Y001293D01*
X012610Y001067D01*
X012697Y000857D01*
X012857Y000697D01*
X013067Y000610D01*
X013293Y000610D01*
X013503Y000697D01*
X013658Y000852D01*
X013697Y000757D01*
X013857Y000597D01*
X014067Y000510D01*
X014293Y000510D01*
X014503Y000597D01*
X014663Y000757D01*
X014702Y000852D01*
X014857Y000697D01*
X015067Y000610D01*
X015293Y000610D01*
X015503Y000697D01*
X015663Y000857D01*
X015669Y000872D01*
X015670Y000869D01*
X015710Y000792D01*
X015760Y000722D01*
X015822Y000660D01*
X015892Y000610D01*
X015969Y000570D01*
X016051Y000544D01*
X016137Y000530D01*
X016160Y000530D01*
X016160Y001060D01*
X016200Y001060D01*
X016200Y000530D01*
X016223Y000530D01*
X016309Y000544D01*
X016391Y000570D01*
X016468Y000610D01*
X016538Y000660D01*
X016600Y000722D01*
X016650Y000792D01*
X016690Y000869D01*
X016702Y000907D01*
X016710Y000892D01*
X016760Y000822D01*
X016822Y000760D01*
X016892Y000710D01*
X016969Y000670D01*
X017051Y000644D01*
X017137Y000630D01*
X017160Y000630D01*
X017160Y001160D01*
X017200Y001160D01*
X017200Y000630D01*
X017223Y000630D01*
X017309Y000644D01*
X017391Y000670D01*
X017468Y000710D01*
X017538Y000760D01*
X017600Y000822D01*
X017644Y000884D01*
X017697Y000757D01*
X017857Y000597D01*
X018067Y000510D01*
X018293Y000510D01*
X018503Y000597D01*
X018663Y000757D01*
X018750Y000967D01*
X018750Y001193D01*
X018663Y001403D01*
X018503Y001563D01*
X018293Y001650D01*
X018067Y001650D01*
X017857Y001563D01*
X017697Y001403D01*
X017691Y001388D01*
X017690Y001391D01*
X017650Y001468D01*
X017600Y001538D01*
X017538Y001600D01*
X017468Y001650D01*
X017391Y001690D01*
X017309Y001716D01*
X017223Y001730D01*
X017200Y001730D01*
X017200Y001200D01*
X017160Y001200D01*
X017160Y001730D01*
X017137Y001730D01*
X017051Y001716D01*
X016969Y001690D01*
X016892Y001650D01*
X016822Y001600D01*
X016760Y001538D01*
X016710Y001468D01*
X016670Y001391D01*
X016658Y001353D01*
X016650Y001368D01*
X016600Y001438D01*
X016538Y001500D01*
X016468Y001550D01*
X016391Y001590D01*
X016309Y001616D01*
X016223Y001630D01*
X016200Y001630D01*
X016200Y001100D01*
X016160Y001100D01*
X016160Y001630D01*
X016137Y001630D01*
X016051Y001616D01*
X015969Y001590D01*
X015892Y001550D01*
X015822Y001500D01*
X015760Y001438D01*
X015716Y001376D01*
X015663Y001503D01*
X015503Y001663D01*
X015293Y001750D01*
X015067Y001750D01*
X015014Y001728D01*
X014533Y002209D01*
X014434Y002250D01*
X010792Y002250D01*
X010202Y002840D01*
X010393Y002840D01*
X010585Y002919D01*
X010731Y003065D01*
X010810Y003257D01*
X010810Y003463D01*
X010731Y003655D01*
X010585Y003801D01*
X010393Y003880D01*
X010187Y003880D01*
X009995Y003801D01*
X009849Y003655D01*
X009770Y003463D01*
X009770Y003272D01*
X009750Y003292D01*
X009750Y003343D01*
X009663Y003553D01*
X009511Y003705D01*
X009663Y003857D01*
X009750Y004067D01*
X009750Y004293D01*
X009663Y004503D01*
X009503Y004663D01*
X009293Y004750D01*
X009067Y004750D01*
X008857Y004663D01*
X008697Y004503D01*
X008610Y004293D01*
X008610Y004067D01*
X008697Y003857D01*
X008849Y003705D01*
X008697Y003553D01*
X008613Y003350D01*
X006747Y003350D01*
X006750Y003343D02*
X006663Y003553D01*
X006511Y003705D01*
X006663Y003857D01*
X006750Y004067D01*
X006750Y004293D01*
X006663Y004503D01*
X006503Y004663D01*
X006293Y004750D01*
X006067Y004750D01*
X005857Y004663D01*
X005697Y004503D01*
X005610Y004293D01*
X005610Y004067D01*
X005697Y003857D01*
X005849Y003705D01*
X005697Y003553D01*
X005613Y003350D01*
X000500Y003350D01*
X000500Y003192D02*
X005310Y003192D01*
X005351Y003233D02*
X005427Y003309D01*
X005526Y003350D01*
X005613Y003350D01*
X005678Y003509D02*
X000500Y003509D01*
X000500Y003667D02*
X005811Y003667D01*
X005728Y003826D02*
X000500Y003826D01*
X000500Y003984D02*
X005644Y003984D01*
X005610Y004143D02*
X000500Y004143D01*
X000500Y004301D02*
X005613Y004301D01*
X005679Y004460D02*
X000500Y004460D01*
X000500Y004618D02*
X005812Y004618D01*
X006548Y004618D02*
X008812Y004618D01*
X008679Y004460D02*
X006681Y004460D01*
X006747Y004301D02*
X008613Y004301D01*
X008610Y004143D02*
X006750Y004143D01*
X006716Y003984D02*
X008644Y003984D01*
X008728Y003826D02*
X006632Y003826D01*
X006549Y003667D02*
X008811Y003667D01*
X008678Y003509D02*
X006682Y003509D01*
X006750Y003343D02*
X006750Y003117D01*
X006690Y002972D01*
X006951Y003233D01*
X007027Y003309D01*
X007126Y003350D01*
X008613Y003350D01*
X009549Y003667D02*
X009862Y003667D01*
X009789Y003509D02*
X009682Y003509D01*
X009747Y003350D02*
X009770Y003350D01*
X009632Y003826D02*
X010055Y003826D01*
X009716Y003984D02*
X016894Y003984D01*
X016736Y004143D02*
X009750Y004143D01*
X009747Y004301D02*
X016577Y004301D01*
X016419Y004460D02*
X009681Y004460D01*
X009548Y004618D02*
X016020Y004618D01*
X016031Y004607D02*
X016192Y004540D01*
X016338Y004540D01*
X018951Y001927D01*
X019027Y001851D01*
X019126Y001810D01*
X020568Y001810D01*
X020578Y001800D01*
X019727Y001800D01*
X019610Y001683D01*
X019610Y000777D01*
X019727Y000660D01*
X020633Y000660D01*
X020738Y000766D01*
X020857Y000647D01*
X021067Y000560D01*
X021293Y000560D01*
X021503Y000647D01*
X021663Y000807D01*
X021702Y000902D01*
X021857Y000747D01*
X022067Y000660D01*
X022293Y000660D01*
X022503Y000747D01*
X022658Y000902D01*
X022697Y000807D01*
X022857Y000647D01*
X023067Y000560D01*
X023293Y000560D01*
X023503Y000647D01*
X023663Y000807D01*
X023702Y000902D01*
X023857Y000747D01*
X024067Y000660D01*
X024293Y000660D01*
X024503Y000747D01*
X024658Y000902D01*
X024697Y000807D01*
X024857Y000647D01*
X025067Y000560D01*
X025293Y000560D01*
X025503Y000647D01*
X025663Y000807D01*
X025702Y000902D01*
X025857Y000747D01*
X026067Y000660D01*
X026293Y000660D01*
X026503Y000747D01*
X026658Y000902D01*
X026697Y000807D01*
X026857Y000647D01*
X027067Y000560D01*
X027293Y000560D01*
X027503Y000647D01*
X027663Y000807D01*
X027750Y001017D01*
X027750Y001243D01*
X027663Y001453D01*
X027503Y001613D01*
X027293Y001700D01*
X027067Y001700D01*
X026857Y001613D01*
X026702Y001458D01*
X026663Y001553D01*
X026503Y001713D01*
X026293Y001800D01*
X026067Y001800D01*
X025857Y001713D01*
X025697Y001553D01*
X025658Y001458D01*
X025503Y001613D01*
X025293Y001700D01*
X025067Y001700D01*
X024857Y001613D01*
X024702Y001458D01*
X024663Y001553D01*
X024503Y001713D01*
X024293Y001800D01*
X024067Y001800D01*
X023857Y001713D01*
X023697Y001553D01*
X023658Y001458D01*
X023503Y001613D01*
X023293Y001700D01*
X023067Y001700D01*
X022857Y001613D01*
X022702Y001458D01*
X022663Y001553D01*
X022503Y001713D01*
X022293Y001800D01*
X022067Y001800D01*
X021857Y001713D01*
X021697Y001553D01*
X021658Y001458D01*
X021527Y001589D01*
X021509Y001633D01*
X021433Y001709D01*
X020833Y002309D01*
X020734Y002350D01*
X019292Y002350D01*
X018432Y003210D01*
X021568Y003210D01*
X022851Y001927D01*
X022927Y001851D01*
X023026Y001810D01*
X029568Y001810D01*
X029578Y001800D01*
X028727Y001800D01*
X028610Y001683D01*
X028610Y000777D01*
X028727Y000660D01*
X029633Y000660D01*
X029738Y000766D01*
X029857Y000647D01*
X030067Y000560D01*
X030293Y000560D01*
X030503Y000647D01*
X030663Y000807D01*
X030702Y000902D01*
X030857Y000747D01*
X031067Y000660D01*
X031293Y000660D01*
X031503Y000747D01*
X031658Y000902D01*
X031697Y000807D01*
X031857Y000647D01*
X032067Y000560D01*
X032293Y000560D01*
X032503Y000647D01*
X032663Y000807D01*
X032702Y000902D01*
X032857Y000747D01*
X033067Y000660D01*
X033293Y000660D01*
X033503Y000747D01*
X033658Y000902D01*
X033697Y000807D01*
X033857Y000647D01*
X034067Y000560D01*
X034293Y000560D01*
X034503Y000647D01*
X034663Y000807D01*
X034702Y000902D01*
X034857Y000747D01*
X035067Y000660D01*
X035293Y000660D01*
X035503Y000747D01*
X035658Y000902D01*
X035697Y000807D01*
X035857Y000647D01*
X036067Y000560D01*
X036293Y000560D01*
X036503Y000647D01*
X036663Y000807D01*
X036750Y001017D01*
X036750Y001243D01*
X036663Y001453D01*
X036503Y001613D01*
X036293Y001700D01*
X036067Y001700D01*
X035857Y001613D01*
X035702Y001458D01*
X035663Y001553D01*
X035503Y001713D01*
X035293Y001800D01*
X035250Y001800D01*
X035250Y005534D01*
X035209Y005633D01*
X035133Y005709D01*
X034633Y006209D01*
X034534Y006250D01*
X033450Y006250D01*
X033450Y010715D01*
X033484Y010729D01*
X033635Y010880D01*
X033683Y010995D01*
X033686Y010986D01*
X033722Y010913D01*
X033770Y010848D01*
X033828Y010790D01*
X033894Y010742D01*
X033966Y010705D01*
X034043Y010680D01*
X034124Y010668D01*
X034136Y010668D01*
X034136Y011156D01*
X034193Y011156D01*
X034193Y011212D01*
X034681Y011212D01*
X034681Y011225D01*
X034668Y011305D01*
X034643Y011382D01*
X034606Y011455D01*
X034558Y011521D01*
X034501Y011578D01*
X034435Y011626D01*
X034363Y011663D01*
X034285Y011688D01*
X034205Y011701D01*
X034193Y011701D01*
X034193Y011212D01*
X034136Y011212D01*
X034136Y011701D01*
X034124Y011701D01*
X034043Y011688D01*
X033966Y011663D01*
X033894Y011626D01*
X033828Y011578D01*
X033770Y011521D01*
X033722Y011455D01*
X033686Y011382D01*
X033683Y011373D01*
X033635Y011488D01*
X033484Y011639D01*
X033287Y011721D01*
X033073Y011721D01*
X032876Y011639D01*
X032725Y011488D01*
X032688Y011398D01*
X032651Y011488D01*
X032500Y011639D01*
X032302Y011721D01*
X032089Y011721D01*
X031892Y011639D01*
X031741Y011488D01*
X031659Y011291D01*
X031659Y011077D01*
X031670Y011052D01*
X031268Y010650D01*
X028293Y010650D01*
X028484Y010729D01*
X028635Y010880D01*
X028683Y010995D01*
X028686Y010986D01*
X028722Y010913D01*
X028770Y010848D01*
X028828Y010790D01*
X028894Y010742D01*
X028966Y010705D01*
X029043Y010680D01*
X029124Y010668D01*
X029136Y010668D01*
X029136Y011156D01*
X029193Y011156D01*
X029193Y011212D01*
X029681Y011212D01*
X029681Y011225D01*
X029668Y011305D01*
X029643Y011382D01*
X029606Y011455D01*
X029558Y011521D01*
X029501Y011578D01*
X029435Y011626D01*
X029363Y011663D01*
X029285Y011688D01*
X029205Y011701D01*
X029193Y011701D01*
X029193Y011212D01*
X029136Y011212D01*
X029136Y011701D01*
X029124Y011701D01*
X029043Y011688D01*
X028966Y011663D01*
X028894Y011626D01*
X028828Y011578D01*
X028770Y011521D01*
X028722Y011455D01*
X028686Y011382D01*
X028683Y011373D01*
X028635Y011488D01*
X028484Y011639D01*
X028287Y011721D01*
X028073Y011721D01*
X027876Y011639D01*
X027725Y011488D01*
X027688Y011398D01*
X027651Y011488D01*
X027500Y011639D01*
X027302Y011721D01*
X027089Y011721D01*
X026892Y011639D01*
X026741Y011488D01*
X026659Y011291D01*
X026659Y011077D01*
X026670Y011052D01*
X026268Y010650D01*
X023317Y010650D01*
X023484Y010719D01*
X023635Y010870D01*
X023683Y010985D01*
X023686Y010976D01*
X023722Y010903D01*
X023770Y010838D01*
X023828Y010780D01*
X023894Y010732D01*
X023966Y010695D01*
X024043Y010670D01*
X024124Y010658D01*
X024136Y010658D01*
X024136Y011146D01*
X024193Y011146D01*
X024193Y011202D01*
X024681Y011202D01*
X024681Y011215D01*
X024668Y011295D01*
X024643Y011372D01*
X024606Y011445D01*
X024558Y011511D01*
X024501Y011568D01*
X024435Y011616D01*
X024363Y011653D01*
X024285Y011678D01*
X024205Y011691D01*
X024193Y011691D01*
X024193Y011202D01*
X024136Y011202D01*
X024136Y011691D01*
X024124Y011691D01*
X024043Y011678D01*
X023966Y011653D01*
X023894Y011616D01*
X023828Y011568D01*
X023770Y011511D01*
X023722Y011445D01*
X023686Y011372D01*
X023683Y011363D01*
X023635Y011478D01*
X023484Y011629D01*
X023287Y011711D01*
X023073Y011711D01*
X022876Y011629D01*
X022725Y011478D01*
X022688Y011388D01*
X022651Y011478D01*
X022500Y011629D01*
X022302Y011711D01*
X022089Y011711D01*
X021907Y011635D01*
X021702Y011840D01*
X021768Y011840D01*
X021929Y011907D01*
X022053Y012031D01*
X022120Y012192D01*
X022120Y012368D01*
X022053Y012529D01*
X021972Y012610D01*
X022034Y012610D01*
X022133Y012651D01*
X024109Y014627D01*
X024109Y013204D01*
X024226Y013087D01*
X025677Y013087D01*
X025687Y013097D01*
X027134Y013097D01*
X027251Y013214D01*
X027251Y014666D01*
X027134Y014783D01*
X025683Y014783D01*
X025673Y014773D01*
X024255Y014773D01*
X027492Y018010D01*
X028028Y018010D01*
X028131Y017907D01*
X028292Y017840D01*
X028468Y017840D01*
X028629Y017907D01*
X028753Y018031D01*
X028820Y018192D01*
X028820Y018368D01*
X028761Y018510D01*
X032934Y018510D01*
X033033Y018551D01*
X034049Y019567D01*
X034067Y019560D01*
X034293Y019560D01*
X034503Y019647D01*
X034663Y019807D01*
X034750Y020017D01*
X034750Y020243D01*
X034663Y020453D01*
X034503Y020613D01*
X034293Y020700D01*
X034067Y020700D01*
X033857Y020613D01*
X033702Y020458D01*
X033663Y020553D01*
X033503Y020713D01*
X033293Y020800D01*
X033067Y020800D01*
X032857Y020713D01*
X032697Y020553D01*
X032658Y020458D01*
X032503Y020613D01*
X032293Y020700D01*
X032067Y020700D01*
X031857Y020613D01*
X031702Y020458D01*
X031663Y020553D01*
X031503Y020713D01*
X031293Y020800D01*
X031067Y020800D01*
X030857Y020713D01*
X030697Y020553D01*
X030658Y020458D01*
X030503Y020613D01*
X030293Y020700D01*
X030067Y020700D01*
X029857Y020613D01*
X029702Y020458D01*
X029663Y020553D01*
X029503Y020713D01*
X029293Y020800D01*
X029067Y020800D01*
X028857Y020713D01*
X028697Y020553D01*
X028658Y020458D01*
X028503Y020613D01*
X028293Y020700D01*
X028067Y020700D01*
X027857Y020613D01*
X027750Y020506D01*
X027750Y020683D01*
X027633Y020800D01*
X026727Y020800D01*
X026610Y020683D01*
X026610Y019777D01*
X026727Y019660D01*
X027633Y019660D01*
X027738Y019766D01*
X027857Y019647D01*
X028067Y019560D01*
X028293Y019560D01*
X028503Y019647D01*
X028663Y019807D01*
X028702Y019902D01*
X028857Y019747D01*
X029067Y019660D01*
X029293Y019660D01*
X029503Y019747D01*
X029658Y019902D01*
X029697Y019807D01*
X029857Y019647D01*
X030067Y019560D01*
X030293Y019560D01*
X030503Y019647D01*
X030663Y019807D01*
X030702Y019902D01*
X030857Y019747D01*
X031067Y019660D01*
X031293Y019660D01*
X031503Y019747D01*
X031658Y019902D01*
X031697Y019807D01*
X031857Y019647D01*
X032067Y019560D01*
X032293Y019560D01*
X032438Y019620D01*
X032368Y019550D01*
X023532Y019550D01*
X023455Y019627D01*
X023503Y019647D01*
X023663Y019807D01*
X023702Y019902D01*
X023857Y019747D01*
X024067Y019660D01*
X024293Y019660D01*
X024503Y019747D01*
X024610Y019854D01*
X024610Y019677D01*
X024727Y019560D01*
X025633Y019560D01*
X025750Y019677D01*
X025750Y020583D01*
X025633Y020700D01*
X024727Y020700D01*
X024622Y020594D01*
X024503Y020713D01*
X024293Y020800D01*
X024067Y020800D01*
X023857Y020713D01*
X023697Y020553D01*
X023658Y020458D01*
X023503Y020613D01*
X023293Y020700D01*
X023067Y020700D01*
X022857Y020613D01*
X022702Y020458D01*
X022663Y020553D01*
X022503Y020713D01*
X022293Y020800D01*
X022067Y020800D01*
X021857Y020713D01*
X021697Y020553D01*
X021658Y020458D01*
X021503Y020613D01*
X021293Y020700D01*
X021067Y020700D01*
X020857Y020613D01*
X020702Y020458D01*
X020663Y020553D01*
X020503Y020713D01*
X020293Y020800D01*
X020067Y020800D01*
X019857Y020713D01*
X019697Y020553D01*
X019658Y020458D01*
X019503Y020613D01*
X019293Y020700D01*
X019067Y020700D01*
X018857Y020613D01*
X018702Y020458D01*
X018663Y020553D01*
X018503Y020713D01*
X018293Y020800D01*
X018067Y020800D01*
X017857Y020713D01*
X017697Y020553D01*
X017610Y020343D01*
X017610Y020117D01*
X017697Y019907D01*
X017857Y019747D01*
X018067Y019660D01*
X018118Y019660D01*
X018858Y018920D01*
X018792Y018920D01*
X018631Y018853D01*
X018507Y018729D01*
X018440Y018568D01*
X018440Y018550D01*
X018261Y018550D01*
X018320Y018692D01*
X018320Y018868D01*
X018253Y019029D01*
X018129Y019153D01*
X017968Y019220D01*
X017792Y019220D01*
X017631Y019153D01*
X017528Y019050D01*
X011092Y019050D01*
X010547Y019595D01*
X010551Y019594D01*
X010637Y019580D01*
X010660Y019580D01*
X010660Y020110D01*
X010700Y020110D01*
X010700Y019580D01*
X010723Y019580D01*
X010809Y019594D01*
X010891Y019620D01*
X010968Y019660D01*
X011038Y019710D01*
X011100Y019772D01*
X011150Y019842D01*
X011190Y019919D01*
X011191Y019922D01*
X011197Y019907D01*
X011357Y019747D01*
X011567Y019660D01*
X011793Y019660D01*
X012003Y019747D01*
X012158Y019902D01*
X012197Y019807D01*
X012357Y019647D01*
X012567Y019560D01*
X012793Y019560D01*
X013003Y019647D01*
X013163Y019807D01*
X013202Y019902D01*
X013357Y019747D01*
X013567Y019660D01*
X013793Y019660D01*
X014003Y019747D01*
X014158Y019902D01*
X014197Y019807D01*
X014357Y019647D01*
X014567Y019560D01*
X014793Y019560D01*
X015003Y019647D01*
X015163Y019807D01*
X015202Y019902D01*
X015357Y019747D01*
X015567Y019660D01*
X015793Y019660D01*
X016003Y019747D01*
X016110Y019854D01*
X016110Y019677D01*
X016227Y019560D01*
X017133Y019560D01*
X017250Y019677D01*
X017250Y020583D01*
X017133Y020700D01*
X016227Y020700D01*
X016122Y020594D01*
X016003Y020713D01*
X015793Y020800D01*
X015567Y020800D01*
X015357Y020713D01*
X015197Y020553D01*
X015158Y020458D01*
X015003Y020613D01*
X014793Y020700D01*
X014567Y020700D01*
X014357Y020613D01*
X014202Y020458D01*
X014163Y020553D01*
X014003Y020713D01*
X013793Y020800D01*
X013567Y020800D01*
X013357Y020713D01*
X013197Y020553D01*
X013158Y020458D01*
X013003Y020613D01*
X012793Y020700D01*
X012567Y020700D01*
X012357Y020613D01*
X012202Y020458D01*
X012163Y020553D01*
X012003Y020713D01*
X011793Y020800D01*
X011567Y020800D01*
X011357Y020713D01*
X011197Y020553D01*
X011144Y020426D01*
X011100Y020488D01*
X011038Y020550D01*
X010968Y020600D01*
X010891Y020640D01*
X010809Y020666D01*
X010723Y020680D01*
X010700Y020680D01*
X010700Y020150D01*
X010660Y020150D01*
X010660Y020680D01*
X010637Y020680D01*
X010551Y020666D01*
X010469Y020640D01*
X010392Y020600D01*
X010322Y020550D01*
X010260Y020488D01*
X010216Y020426D01*
X010163Y020553D01*
X010003Y020713D01*
X009793Y020800D01*
X009567Y020800D01*
X009357Y020713D01*
X009197Y020553D01*
X009110Y020343D01*
X009110Y020117D01*
X009197Y019907D01*
X009357Y019747D01*
X009567Y019660D01*
X009793Y019660D01*
X010003Y019747D01*
X010163Y019907D01*
X010169Y019922D01*
X010170Y019919D01*
X010210Y019842D01*
X010260Y019772D01*
X010322Y019710D01*
X010392Y019660D01*
X010411Y019650D01*
X007826Y019650D01*
X007727Y019609D01*
X007651Y019533D01*
X007308Y019190D01*
X007283Y019200D01*
X007077Y019200D01*
X006885Y019121D01*
X006739Y018975D01*
X006667Y018800D01*
X006643Y018872D01*
X006608Y018942D01*
X006561Y019006D01*
X006506Y019061D01*
X006442Y019108D01*
X006372Y019143D01*
X006297Y019168D01*
X006219Y019180D01*
X006200Y019180D01*
X006200Y018700D01*
X006160Y018700D01*
X006160Y019180D01*
X006141Y019180D01*
X006063Y019168D01*
X005988Y019143D01*
X005918Y019108D01*
X005854Y019061D01*
X005799Y019006D01*
X005752Y018942D01*
X005717Y018872D01*
X005692Y018797D01*
X005680Y018719D01*
X005680Y018700D01*
X006160Y018700D01*
X006160Y018660D01*
X006200Y018660D01*
X006200Y018180D01*
X006219Y018180D01*
X006200Y018180D01*
X006200Y017700D01*
X006160Y017700D01*
X006160Y018180D01*
X006141Y018180D01*
X006063Y018168D01*
X005988Y018143D01*
X005918Y018108D01*
X005854Y018061D01*
X005799Y018006D01*
X005752Y017942D01*
X005717Y017872D01*
X005692Y017797D01*
X005680Y017719D01*
X005680Y017700D01*
X006160Y017700D01*
X006160Y017660D01*
X006200Y017660D01*
X006200Y017180D01*
X006219Y017180D01*
X006200Y017180D01*
X006200Y016700D01*
X006160Y016700D01*
X006160Y017180D01*
X006141Y017180D01*
X006063Y017168D01*
X005988Y017143D01*
X005918Y017108D01*
X005854Y017061D01*
X005799Y017006D01*
X005752Y016942D01*
X005717Y016872D01*
X005692Y016797D01*
X005680Y016719D01*
X005680Y016700D01*
X006160Y016700D01*
X006160Y016660D01*
X006200Y016660D01*
X006200Y016180D01*
X006219Y016180D01*
X006297Y016192D01*
X006372Y016217D01*
X006442Y016252D01*
X006506Y016299D01*
X006561Y016354D01*
X006608Y016418D01*
X006643Y016488D01*
X006667Y016560D01*
X006739Y016385D01*
X006885Y016239D01*
X007077Y016160D01*
X007278Y016160D01*
X007268Y016150D01*
X005992Y016150D01*
X005150Y016992D01*
X005150Y017900D01*
X005210Y017960D01*
X005210Y018400D01*
X004900Y018710D01*
X004460Y018710D01*
X004150Y018400D01*
X004150Y017960D01*
X004460Y017650D01*
X004610Y017650D01*
X004610Y016826D01*
X004651Y016727D01*
X004727Y016651D01*
X005528Y015850D01*
X004692Y015850D01*
X002210Y018332D01*
X002210Y018400D01*
X001900Y018710D01*
X001852Y018710D01*
X001872Y018717D01*
X001942Y018752D01*
X002006Y018799D01*
X002061Y018854D01*
X002108Y018918D01*
X002143Y018988D01*
X002167Y019060D01*
X002239Y018885D01*
X002385Y018739D01*
X002577Y018660D01*
X002783Y018660D01*
X002975Y018739D01*
X003121Y018885D01*
X003180Y019028D01*
X003239Y018885D01*
X003385Y018739D01*
X003577Y018660D01*
X003783Y018660D01*
X003975Y018739D01*
X004121Y018885D01*
X004200Y019077D01*
X004200Y019283D01*
X004121Y019475D01*
X003975Y019621D01*
X003783Y019700D01*
X003577Y019700D01*
X003385Y019621D01*
X003239Y019475D01*
X003180Y019332D01*
X003121Y019475D01*
X002975Y019621D01*
X002783Y019700D01*
X002577Y019700D01*
X002385Y019621D01*
X002239Y019475D01*
X002167Y019300D01*
X002143Y019372D01*
X002108Y019442D01*
X002061Y019506D01*
X002006Y019561D01*
X001942Y019608D01*
X001872Y019643D01*
X001797Y019668D01*
X001719Y019680D01*
X001700Y019680D01*
X001700Y019200D01*
X001660Y019200D01*
X001660Y019680D01*
X001641Y019680D01*
X001563Y019668D01*
X001488Y019643D01*
X001418Y019608D01*
X001354Y019561D01*
X001299Y019506D01*
X001252Y019442D01*
X001217Y019372D01*
X001192Y019297D01*
X001180Y019219D01*
X001180Y019200D01*
X001660Y019200D01*
X001660Y019160D01*
X001180Y019160D01*
X001180Y019141D01*
X001192Y019063D01*
X001217Y018988D01*
X001252Y018918D01*
X001299Y018854D01*
X001354Y018799D01*
X001418Y018752D01*
X001488Y018717D01*
X001508Y018710D01*
X001460Y018710D01*
X001150Y018400D01*
X001150Y017960D01*
X001460Y017650D01*
X001900Y017650D01*
X002014Y017764D01*
X004427Y015351D01*
X004526Y015310D01*
X008588Y015310D01*
X008507Y015229D01*
X008440Y015068D01*
X008440Y014892D01*
X008507Y014731D01*
X008631Y014607D01*
X008791Y014541D01*
X008731Y014480D01*
X008680Y014358D01*
X008629Y014480D01*
X008480Y014629D01*
X008285Y014710D01*
X008075Y014710D01*
X007880Y014629D01*
X007731Y014480D01*
X007680Y014358D01*
X007629Y014480D01*
X007480Y014629D01*
X007285Y014710D01*
X007075Y014710D01*
X006880Y014629D01*
X006731Y014480D01*
X006680Y014358D01*
X006629Y014480D01*
X006480Y014629D01*
X006285Y014710D01*
X006075Y014710D01*
X005880Y014629D01*
X005731Y014480D01*
X005680Y014358D01*
X005629Y014480D01*
X005480Y014629D01*
X005285Y014710D01*
X005075Y014710D01*
X004880Y014629D01*
X004731Y014480D01*
X004680Y014358D01*
X004629Y014480D01*
X004480Y014629D01*
X004285Y014710D01*
X004075Y014710D01*
X003880Y014629D01*
X003731Y014480D01*
X003680Y014358D01*
X003629Y014480D01*
X003480Y014629D01*
X003285Y014710D01*
X003075Y014710D01*
X002880Y014629D01*
X002731Y014480D01*
X002680Y014358D01*
X002629Y014480D01*
X002480Y014629D01*
X002285Y014710D01*
X002075Y014710D01*
X001880Y014629D01*
X001731Y014480D01*
X001650Y014285D01*
X001650Y014075D01*
X001731Y013880D01*
X001880Y013731D01*
X002060Y013656D01*
X001992Y013634D01*
X001923Y013599D01*
X001861Y013554D01*
X001806Y013499D01*
X001761Y013437D01*
X001726Y013368D01*
X001702Y013295D01*
X001690Y013219D01*
X001690Y013195D01*
X002165Y013195D01*
X002165Y013165D01*
X002195Y013165D01*
X002195Y013195D01*
X002670Y013195D01*
X002670Y013219D01*
X002658Y013295D01*
X002634Y013368D01*
X002599Y013437D01*
X002554Y013499D01*
X002499Y013554D01*
X002437Y013599D01*
X002368Y013634D01*
X002300Y013656D01*
X002480Y013731D01*
X002629Y013880D01*
X002680Y014002D01*
X002731Y013880D01*
X002880Y013731D01*
X003028Y013669D01*
X002891Y013612D01*
X002748Y013469D01*
X002670Y013281D01*
X002670Y013079D01*
X002748Y012891D01*
X002891Y012748D01*
X003079Y012670D01*
X003281Y012670D01*
X003300Y012678D01*
X006951Y009027D01*
X007027Y008951D01*
X007126Y008910D01*
X012530Y008910D01*
X012527Y008909D01*
X012451Y008833D01*
X011300Y007682D01*
X011281Y007690D01*
X011258Y007690D01*
X011380Y007812D01*
X011380Y008429D01*
X011166Y008643D01*
X011032Y008777D01*
X010841Y008777D01*
X010721Y008657D01*
X010601Y008777D01*
X010303Y008777D01*
X010169Y008643D01*
X010169Y008459D01*
X010144Y008485D01*
X010064Y008564D01*
X009660Y008564D01*
X009593Y008497D01*
X009526Y008564D01*
X009336Y008564D01*
X009218Y008446D01*
X009099Y008564D01*
X008909Y008564D01*
X008774Y008429D01*
X008774Y008239D01*
X008892Y008120D01*
X008774Y008002D01*
X008774Y007812D01*
X008909Y007677D01*
X009047Y007677D01*
X008891Y007612D01*
X008748Y007469D01*
X008680Y007306D01*
X008612Y007469D01*
X008469Y007612D01*
X008281Y007690D01*
X008251Y007690D01*
X008372Y007812D01*
X008372Y008643D01*
X008237Y008777D01*
X007620Y008777D01*
X007485Y008643D01*
X007485Y008564D01*
X007402Y008564D01*
X007284Y008446D01*
X007166Y008564D01*
X006975Y008564D01*
X006962Y008550D01*
X006948Y008564D01*
X006331Y008564D01*
X006317Y008550D01*
X006304Y008564D01*
X005686Y008564D01*
X005673Y008550D01*
X005659Y008564D01*
X005469Y008564D01*
X005350Y008446D01*
X005232Y008564D01*
X005042Y008564D01*
X004907Y008429D01*
X004907Y007705D01*
X004968Y007644D01*
X004891Y007612D01*
X004748Y007469D01*
X004680Y007306D01*
X004612Y007469D01*
X004469Y007612D01*
X004313Y007677D01*
X004370Y007677D01*
X004505Y007812D01*
X004505Y008643D01*
X004370Y008777D01*
X004180Y008777D01*
X004061Y008659D01*
X003943Y008777D01*
X003753Y008777D01*
X003618Y008643D01*
X003618Y008564D01*
X003216Y008564D01*
X003216Y008643D01*
X003081Y008777D01*
X002890Y008777D01*
X002756Y008643D01*
X002756Y008564D01*
X002571Y008564D01*
X002571Y008643D01*
X002436Y008777D01*
X002246Y008777D01*
X002111Y008643D01*
X002111Y008564D01*
X001927Y008564D01*
X001927Y008643D01*
X001792Y008777D01*
X001495Y008777D01*
X001360Y008643D01*
X001360Y008459D01*
X001335Y008485D01*
X001255Y008564D01*
X000851Y008564D01*
X000745Y008457D01*
X000610Y008322D01*
X000610Y008025D01*
X000717Y007918D01*
X000717Y007812D01*
X000851Y007677D01*
X001255Y007677D01*
X001322Y007743D01*
X001388Y007677D01*
X001792Y007677D01*
X001859Y007744D01*
X001926Y007677D01*
X002047Y007677D01*
X001891Y007612D01*
X001748Y007469D01*
X001670Y007281D01*
X001670Y007079D01*
X001748Y006891D01*
X001891Y006748D01*
X002028Y006691D01*
X001880Y006629D01*
X001731Y006480D01*
X001650Y006285D01*
X001650Y006075D01*
X001731Y005880D01*
X001880Y005731D01*
X002075Y005650D01*
X002285Y005650D01*
X002480Y005731D01*
X002629Y005880D01*
X002680Y006002D01*
X002731Y005880D01*
X002880Y005731D01*
X003075Y005650D01*
X003285Y005650D01*
X003480Y005731D01*
X003629Y005880D01*
X003680Y006002D01*
X003731Y005880D01*
X003880Y005731D01*
X004075Y005650D01*
X004285Y005650D01*
X004480Y005731D01*
X004629Y005880D01*
X004680Y006002D01*
X004731Y005880D01*
X004880Y005731D01*
X005075Y005650D01*
X005285Y005650D01*
X005480Y005731D01*
X005629Y005880D01*
X005680Y006002D01*
X005731Y005880D01*
X005880Y005731D01*
X006075Y005650D01*
X006285Y005650D01*
X006480Y005731D01*
X006629Y005880D01*
X006680Y006002D01*
X006731Y005880D01*
X006880Y005731D01*
X007075Y005650D01*
X007285Y005650D01*
X007480Y005731D01*
X007629Y005880D01*
X007680Y006002D01*
X007731Y005880D01*
X007880Y005731D01*
X008075Y005650D01*
X008285Y005650D01*
X008480Y005731D01*
X008629Y005880D01*
X008680Y006002D01*
X008731Y005880D01*
X008880Y005731D01*
X009075Y005650D01*
X009285Y005650D01*
X009480Y005731D01*
X009629Y005880D01*
X009680Y006002D01*
X009731Y005880D01*
X009880Y005731D01*
X010075Y005650D01*
X010285Y005650D01*
X010480Y005731D01*
X010629Y005880D01*
X010680Y006002D01*
X010731Y005880D01*
X010880Y005731D01*
X011075Y005650D01*
X011285Y005650D01*
X011480Y005731D01*
X011629Y005880D01*
X011680Y006002D01*
X011731Y005880D01*
X011880Y005731D01*
X012075Y005650D01*
X012285Y005650D01*
X012480Y005731D01*
X012629Y005880D01*
X012680Y006002D01*
X012731Y005880D01*
X012880Y005731D01*
X013075Y005650D01*
X013285Y005650D01*
X013480Y005731D01*
X013629Y005880D01*
X013680Y006002D01*
X013731Y005880D01*
X013880Y005731D01*
X014075Y005650D01*
X014285Y005650D01*
X014480Y005731D01*
X014629Y005880D01*
X014710Y006075D01*
X014710Y006285D01*
X014629Y006480D01*
X014480Y006629D01*
X014332Y006691D01*
X014469Y006748D01*
X014612Y006891D01*
X014690Y007079D01*
X014690Y007281D01*
X014612Y007469D01*
X014469Y007612D01*
X014306Y007680D01*
X014469Y007748D01*
X014612Y007891D01*
X014690Y008079D01*
X014690Y008281D01*
X014612Y008469D01*
X014582Y008500D01*
X016533Y010451D01*
X016609Y010527D01*
X016650Y010626D01*
X016650Y012010D01*
X017728Y012010D01*
X017392Y011674D01*
X017302Y011711D01*
X017089Y011711D01*
X016892Y011629D01*
X016741Y011478D01*
X016659Y011281D01*
X016659Y011067D01*
X016741Y010870D01*
X016892Y010719D01*
X017089Y010638D01*
X017302Y010638D01*
X017500Y010719D01*
X017651Y010870D01*
X017688Y010960D01*
X017725Y010870D01*
X017876Y010719D01*
X018073Y010638D01*
X018241Y010638D01*
X020051Y008827D01*
X020095Y008783D01*
X019226Y008783D01*
X019109Y008666D01*
X019109Y007214D01*
X019226Y007097D01*
X020677Y007097D01*
X020680Y007100D01*
X020683Y007097D01*
X022134Y007097D01*
X022251Y007214D01*
X022251Y008666D01*
X022207Y008710D01*
X022941Y008710D01*
X022941Y007661D01*
X022941Y007608D01*
X022941Y007607D01*
X022941Y007607D01*
X022962Y007558D01*
X022982Y007509D01*
X022982Y007508D01*
X022983Y007507D01*
X023020Y007470D01*
X023940Y006541D01*
X023940Y006392D01*
X023999Y006250D01*
X021826Y006250D01*
X021727Y006209D01*
X021680Y006162D01*
X021633Y006209D01*
X021534Y006250D01*
X017726Y006250D01*
X017627Y006209D01*
X017139Y005721D01*
X017089Y005721D01*
X016892Y005639D01*
X016741Y005488D01*
X016659Y005291D01*
X016659Y005214D01*
X016653Y005229D01*
X016529Y005353D01*
X016368Y005420D01*
X016192Y005420D01*
X016031Y005353D01*
X015907Y005229D01*
X015840Y005068D01*
X015840Y004892D01*
X015907Y004731D01*
X016031Y004607D01*
X015888Y004777D02*
X000500Y004777D01*
X000500Y004935D02*
X015840Y004935D01*
X015851Y005094D02*
X000500Y005094D01*
X000500Y005252D02*
X015930Y005252D01*
X016170Y005411D02*
X000500Y005411D01*
X000500Y005569D02*
X016822Y005569D01*
X016709Y005411D02*
X016390Y005411D01*
X016630Y005252D02*
X016659Y005252D01*
X017146Y005728D02*
X014473Y005728D01*
X014632Y005886D02*
X017304Y005886D01*
X017463Y006045D02*
X014698Y006045D01*
X014710Y006203D02*
X017621Y006203D01*
X018312Y005710D02*
X021368Y005710D01*
X021451Y005627D01*
X021697Y005381D01*
X021659Y005291D01*
X021659Y005077D01*
X021741Y004880D01*
X021892Y004729D01*
X022089Y004648D01*
X022302Y004648D01*
X022500Y004729D01*
X022651Y004880D01*
X022688Y004970D01*
X022725Y004880D01*
X022876Y004729D01*
X022910Y004715D01*
X022910Y002632D01*
X021833Y003709D01*
X021734Y003750D01*
X018450Y003750D01*
X018450Y004715D01*
X018484Y004729D01*
X018635Y004880D01*
X018683Y004995D01*
X018686Y004986D01*
X018722Y004913D01*
X018770Y004848D01*
X018828Y004790D01*
X018894Y004742D01*
X018966Y004705D01*
X019043Y004680D01*
X019124Y004668D01*
X019136Y004668D01*
X019136Y005156D01*
X019193Y005156D01*
X019193Y005212D01*
X019681Y005212D01*
X019681Y005225D01*
X019668Y005305D01*
X019643Y005382D01*
X019606Y005455D01*
X019558Y005521D01*
X019501Y005578D01*
X019435Y005626D01*
X019363Y005663D01*
X019285Y005688D01*
X019205Y005701D01*
X019193Y005701D01*
X019193Y005212D01*
X019136Y005212D01*
X019136Y005701D01*
X019124Y005701D01*
X019043Y005688D01*
X018966Y005663D01*
X018894Y005626D01*
X018828Y005578D01*
X018770Y005521D01*
X018722Y005455D01*
X018686Y005382D01*
X018683Y005373D01*
X018635Y005488D01*
X018484Y005639D01*
X018312Y005710D01*
X018554Y005569D02*
X018819Y005569D01*
X018700Y005411D02*
X018667Y005411D01*
X019136Y005411D02*
X019193Y005411D01*
X019193Y005569D02*
X019136Y005569D01*
X019136Y005252D02*
X019193Y005252D01*
X019193Y005156D02*
X019681Y005156D01*
X019681Y005143D01*
X019668Y005063D01*
X019643Y004986D01*
X019606Y004913D01*
X019558Y004848D01*
X019501Y004790D01*
X019435Y004742D01*
X019363Y004705D01*
X019285Y004680D01*
X019205Y004668D01*
X019193Y004668D01*
X019193Y005156D01*
X019193Y005094D02*
X019136Y005094D01*
X019136Y004935D02*
X019193Y004935D01*
X019193Y004777D02*
X019136Y004777D01*
X018846Y004777D02*
X018531Y004777D01*
X018450Y004618D02*
X022910Y004618D01*
X022910Y004460D02*
X018450Y004460D01*
X018450Y004301D02*
X022910Y004301D01*
X022910Y004143D02*
X018450Y004143D01*
X018450Y003984D02*
X022910Y003984D01*
X022910Y003826D02*
X018450Y003826D01*
X018450Y003192D02*
X021587Y003192D01*
X021745Y003033D02*
X018609Y003033D01*
X018767Y002875D02*
X021904Y002875D01*
X022062Y002716D02*
X018926Y002716D01*
X019084Y002558D02*
X022221Y002558D01*
X022379Y002399D02*
X019243Y002399D01*
X018796Y002082D02*
X014660Y002082D01*
X014818Y001924D02*
X018955Y001924D01*
X018398Y001607D02*
X019610Y001607D01*
X019610Y001448D02*
X018618Y001448D01*
X018710Y001290D02*
X019610Y001290D01*
X019610Y001131D02*
X018750Y001131D01*
X018750Y000973D02*
X019610Y000973D01*
X019610Y000814D02*
X018687Y000814D01*
X018562Y000656D02*
X020848Y000656D01*
X021512Y000656D02*
X022848Y000656D01*
X022694Y000814D02*
X022570Y000814D01*
X021790Y000814D02*
X021666Y000814D01*
X021750Y001607D02*
X021520Y001607D01*
X021377Y001765D02*
X021982Y001765D01*
X022378Y001765D02*
X023982Y001765D01*
X023750Y001607D02*
X023510Y001607D01*
X022850Y001607D02*
X022610Y001607D01*
X022855Y001924D02*
X021218Y001924D01*
X021060Y002082D02*
X022696Y002082D01*
X022851Y001927D02*
X022851Y001927D01*
X022538Y002241D02*
X020901Y002241D01*
X019692Y001765D02*
X014977Y001765D01*
X015560Y001607D02*
X016021Y001607D01*
X016160Y001607D02*
X016200Y001607D01*
X016339Y001607D02*
X016831Y001607D01*
X016699Y001448D02*
X016590Y001448D01*
X016200Y001448D02*
X016160Y001448D01*
X016160Y001290D02*
X016200Y001290D01*
X016200Y001131D02*
X016160Y001131D01*
X016160Y000973D02*
X016200Y000973D01*
X016200Y000814D02*
X016160Y000814D01*
X016160Y000656D02*
X016200Y000656D01*
X016531Y000656D02*
X017014Y000656D01*
X017160Y000656D02*
X017200Y000656D01*
X017346Y000656D02*
X017798Y000656D01*
X017673Y000814D02*
X017592Y000814D01*
X017200Y000814D02*
X017160Y000814D01*
X017160Y000973D02*
X017200Y000973D01*
X017200Y001131D02*
X017160Y001131D01*
X017160Y001290D02*
X017200Y001290D01*
X017200Y001448D02*
X017160Y001448D01*
X017160Y001607D02*
X017200Y001607D01*
X017529Y001607D02*
X017962Y001607D01*
X017742Y001448D02*
X017661Y001448D01*
X016768Y000814D02*
X016662Y000814D01*
X015829Y000656D02*
X015403Y000656D01*
X015620Y000814D02*
X015698Y000814D01*
X014957Y000656D02*
X014562Y000656D01*
X014687Y000814D02*
X014740Y000814D01*
X013798Y000656D02*
X013403Y000656D01*
X013620Y000814D02*
X013673Y000814D01*
X012957Y000656D02*
X012549Y000656D01*
X012570Y000820D02*
X012570Y000839D01*
X012558Y000917D01*
X012533Y000992D01*
X012498Y001062D01*
X012451Y001126D01*
X012396Y001181D01*
X012332Y001228D01*
X012262Y001263D01*
X012187Y001288D01*
X012109Y001300D01*
X012090Y001300D01*
X012090Y000820D01*
X012570Y000820D01*
X012540Y000973D02*
X012649Y000973D01*
X012610Y001131D02*
X012446Y001131D01*
X012610Y001290D02*
X012176Y001290D01*
X012090Y001290D02*
X012050Y001290D01*
X011964Y001290D02*
X011171Y001290D01*
X011013Y001131D02*
X011694Y001131D01*
X011600Y000973D02*
X010854Y000973D01*
X010810Y000814D02*
X012050Y000814D01*
X012090Y000814D02*
X012740Y000814D01*
X012090Y000973D02*
X012050Y000973D01*
X012050Y001131D02*
X012090Y001131D01*
X011591Y000656D02*
X010793Y000656D01*
X010643Y002399D02*
X018479Y002399D01*
X018321Y002558D02*
X010484Y002558D01*
X010326Y002716D02*
X018162Y002716D01*
X018004Y002875D02*
X012194Y002875D01*
X012187Y002872D02*
X012262Y002897D01*
X012332Y002932D01*
X012396Y002979D01*
X012451Y003034D01*
X012498Y003098D01*
X012533Y003168D01*
X012558Y003243D01*
X012570Y003321D01*
X012570Y003340D01*
X012090Y003340D01*
X012090Y003380D01*
X012050Y003380D01*
X012050Y003860D01*
X012031Y003860D01*
X011953Y003848D01*
X011878Y003823D01*
X011808Y003788D01*
X011744Y003741D01*
X011689Y003686D01*
X011642Y003622D01*
X011607Y003552D01*
X011582Y003477D01*
X011570Y003399D01*
X011570Y003380D01*
X012050Y003380D01*
X012050Y003340D01*
X011570Y003340D01*
X011570Y003321D01*
X011582Y003243D01*
X011607Y003168D01*
X011642Y003098D01*
X011689Y003034D01*
X011744Y002979D01*
X011808Y002932D01*
X011878Y002897D01*
X011953Y002872D01*
X012031Y002860D01*
X012050Y002860D01*
X012050Y003340D01*
X012090Y003340D01*
X012090Y002860D01*
X012109Y002860D01*
X012187Y002872D01*
X012090Y002875D02*
X012050Y002875D01*
X011946Y002875D02*
X010477Y002875D01*
X010698Y003033D02*
X011690Y003033D01*
X011599Y003192D02*
X010783Y003192D01*
X010810Y003350D02*
X012050Y003350D01*
X012090Y003350D02*
X017528Y003350D01*
X017370Y003509D02*
X012547Y003509D01*
X012558Y003477D02*
X012533Y003552D01*
X012498Y003622D01*
X012451Y003686D01*
X012396Y003741D01*
X012332Y003788D01*
X012262Y003823D01*
X012187Y003848D01*
X012109Y003860D01*
X012090Y003860D01*
X012090Y003380D01*
X012570Y003380D01*
X012570Y003399D01*
X012558Y003477D01*
X012465Y003667D02*
X017211Y003667D01*
X017053Y003826D02*
X012255Y003826D01*
X012090Y003826D02*
X012050Y003826D01*
X012050Y003667D02*
X012090Y003667D01*
X012090Y003509D02*
X012050Y003509D01*
X011885Y003826D02*
X010525Y003826D01*
X010718Y003667D02*
X011675Y003667D01*
X011593Y003509D02*
X010791Y003509D01*
X012050Y003192D02*
X012090Y003192D01*
X012090Y003033D02*
X012050Y003033D01*
X012450Y003033D02*
X017845Y003033D01*
X017687Y003192D02*
X012541Y003192D01*
X014457Y002241D02*
X018638Y002241D01*
X015770Y001448D02*
X015686Y001448D01*
X021875Y003667D02*
X022910Y003667D01*
X022910Y003509D02*
X022033Y003509D01*
X022192Y003350D02*
X022910Y003350D01*
X022910Y003192D02*
X022350Y003192D01*
X022509Y003033D02*
X022910Y003033D01*
X022910Y002875D02*
X022667Y002875D01*
X022826Y002716D02*
X022910Y002716D01*
X023450Y002716D02*
X027910Y002716D01*
X027910Y002650D02*
X023450Y002650D01*
X023450Y004715D01*
X023484Y004729D01*
X023635Y004880D01*
X023683Y004995D01*
X023686Y004986D01*
X023722Y004913D01*
X023770Y004848D01*
X023828Y004790D01*
X023894Y004742D01*
X023966Y004705D01*
X024043Y004680D01*
X024124Y004668D01*
X024136Y004668D01*
X024136Y005156D01*
X024193Y005156D01*
X024193Y005212D01*
X024681Y005212D01*
X024681Y005225D01*
X024668Y005305D01*
X024643Y005382D01*
X024606Y005455D01*
X024558Y005521D01*
X024501Y005578D01*
X024435Y005626D01*
X024363Y005663D01*
X024285Y005688D01*
X024205Y005701D01*
X024193Y005701D01*
X024193Y005212D01*
X024136Y005212D01*
X024136Y005701D01*
X024124Y005701D01*
X024043Y005688D01*
X023966Y005663D01*
X023894Y005626D01*
X023828Y005578D01*
X023770Y005521D01*
X023722Y005455D01*
X023686Y005382D01*
X023683Y005373D01*
X023635Y005488D01*
X023484Y005639D01*
X023312Y005710D01*
X027063Y005710D01*
X026892Y005639D01*
X026741Y005488D01*
X026659Y005291D01*
X026659Y005077D01*
X026741Y004880D01*
X026892Y004729D01*
X027089Y004648D01*
X027302Y004648D01*
X027500Y004729D01*
X027651Y004880D01*
X027688Y004970D01*
X027725Y004880D01*
X027876Y004729D01*
X027910Y004715D01*
X027910Y002650D01*
X027910Y002875D02*
X023450Y002875D01*
X023450Y003033D02*
X027910Y003033D01*
X027910Y003192D02*
X023450Y003192D01*
X023450Y003350D02*
X027910Y003350D01*
X027910Y003509D02*
X023450Y003509D01*
X023450Y003667D02*
X027910Y003667D01*
X027910Y003826D02*
X023450Y003826D01*
X023450Y003984D02*
X027910Y003984D01*
X027910Y004143D02*
X023450Y004143D01*
X023450Y004301D02*
X027910Y004301D01*
X027910Y004460D02*
X023450Y004460D01*
X023450Y004618D02*
X027910Y004618D01*
X027829Y004777D02*
X027547Y004777D01*
X027673Y004935D02*
X027702Y004935D01*
X028450Y004715D02*
X028484Y004729D01*
X028635Y004880D01*
X028683Y004995D01*
X028686Y004986D01*
X028722Y004913D01*
X028770Y004848D01*
X028828Y004790D01*
X028894Y004742D01*
X028966Y004705D01*
X029043Y004680D01*
X029124Y004668D01*
X029136Y004668D01*
X029136Y005156D01*
X029193Y005156D01*
X029193Y005212D01*
X029681Y005212D01*
X029681Y005225D01*
X029668Y005305D01*
X029643Y005382D01*
X029606Y005455D01*
X029558Y005521D01*
X029501Y005578D01*
X029435Y005626D01*
X029363Y005663D01*
X029285Y005688D01*
X029205Y005701D01*
X029193Y005701D01*
X029193Y005212D01*
X029136Y005212D01*
X029136Y005701D01*
X029124Y005701D01*
X029043Y005688D01*
X028966Y005663D01*
X028894Y005626D01*
X028828Y005578D01*
X028770Y005521D01*
X028722Y005455D01*
X028686Y005382D01*
X028683Y005373D01*
X028635Y005488D01*
X028484Y005639D01*
X028312Y005710D01*
X031268Y005710D01*
X031670Y005308D01*
X031659Y005281D01*
X031659Y005067D01*
X031741Y004870D01*
X031892Y004719D01*
X032089Y004638D01*
X032302Y004638D01*
X032500Y004719D01*
X032651Y004870D01*
X032688Y004960D01*
X032725Y004870D01*
X032876Y004719D01*
X033073Y004638D01*
X033287Y004638D01*
X033484Y004719D01*
X033635Y004870D01*
X033683Y004985D01*
X033686Y004976D01*
X033722Y004903D01*
X033770Y004838D01*
X033828Y004780D01*
X033894Y004732D01*
X033966Y004695D01*
X034043Y004670D01*
X034124Y004658D01*
X034136Y004658D01*
X034136Y005146D01*
X034193Y005146D01*
X034193Y005202D01*
X034681Y005202D01*
X034681Y005215D01*
X034668Y005295D01*
X034643Y005372D01*
X034606Y005445D01*
X034558Y005511D01*
X034501Y005568D01*
X034435Y005616D01*
X034363Y005653D01*
X034285Y005678D01*
X034205Y005691D01*
X034193Y005691D01*
X034193Y005202D01*
X034136Y005202D01*
X034136Y005691D01*
X034124Y005691D01*
X034043Y005678D01*
X033966Y005653D01*
X033894Y005616D01*
X033828Y005568D01*
X033770Y005511D01*
X033722Y005445D01*
X033686Y005372D01*
X033683Y005363D01*
X033635Y005478D01*
X033484Y005629D01*
X033288Y005710D01*
X034368Y005710D01*
X034710Y005368D01*
X034710Y001566D01*
X034697Y001553D01*
X034658Y001458D01*
X034503Y001613D01*
X034293Y001700D01*
X034067Y001700D01*
X033857Y001613D01*
X033702Y001458D01*
X033663Y001553D01*
X033503Y001713D01*
X033293Y001800D01*
X033067Y001800D01*
X033049Y001793D01*
X031933Y002909D01*
X031834Y002950D01*
X028450Y002950D01*
X028450Y004715D01*
X028450Y004618D02*
X034710Y004618D01*
X034710Y004460D02*
X028450Y004460D01*
X028450Y004301D02*
X034710Y004301D01*
X034710Y004143D02*
X028450Y004143D01*
X028450Y003984D02*
X034710Y003984D01*
X034710Y003826D02*
X028450Y003826D01*
X028450Y003667D02*
X034710Y003667D01*
X034710Y003509D02*
X028450Y003509D01*
X028450Y003350D02*
X034710Y003350D01*
X034710Y003192D02*
X028450Y003192D01*
X028450Y003033D02*
X034710Y003033D01*
X034710Y002875D02*
X031967Y002875D01*
X032126Y002716D02*
X034710Y002716D01*
X034710Y002558D02*
X032284Y002558D01*
X032443Y002399D02*
X034710Y002399D01*
X034710Y002241D02*
X032601Y002241D01*
X032760Y002082D02*
X034710Y002082D01*
X034710Y001924D02*
X032918Y001924D01*
X033378Y001765D02*
X034710Y001765D01*
X034710Y001607D02*
X034510Y001607D01*
X033850Y001607D02*
X033610Y001607D01*
X033570Y000814D02*
X033694Y000814D01*
X033848Y000656D02*
X032512Y000656D01*
X032666Y000814D02*
X032790Y000814D01*
X031848Y000656D02*
X030512Y000656D01*
X030666Y000814D02*
X030790Y000814D01*
X031570Y000814D02*
X031694Y000814D01*
X029848Y000656D02*
X027512Y000656D01*
X027666Y000814D02*
X028610Y000814D01*
X028610Y000973D02*
X027732Y000973D01*
X027750Y001131D02*
X028610Y001131D01*
X028610Y001290D02*
X027731Y001290D01*
X027665Y001448D02*
X028610Y001448D01*
X028610Y001607D02*
X027510Y001607D01*
X026850Y001607D02*
X026610Y001607D01*
X026378Y001765D02*
X028692Y001765D01*
X026848Y000656D02*
X025512Y000656D01*
X025666Y000814D02*
X025790Y000814D01*
X026570Y000814D02*
X026694Y000814D01*
X025750Y001607D02*
X025510Y001607D01*
X025982Y001765D02*
X024378Y001765D01*
X024610Y001607D02*
X024850Y001607D01*
X024694Y000814D02*
X024570Y000814D01*
X024848Y000656D02*
X023512Y000656D01*
X023666Y000814D02*
X023790Y000814D01*
X024193Y004668D02*
X024205Y004668D01*
X024285Y004680D01*
X024363Y004705D01*
X024435Y004742D01*
X024501Y004790D01*
X024558Y004848D01*
X024606Y004913D01*
X024643Y004986D01*
X024668Y005063D01*
X024681Y005143D01*
X024681Y005156D01*
X024193Y005156D01*
X024193Y004668D01*
X024193Y004777D02*
X024136Y004777D01*
X024136Y004935D02*
X024193Y004935D01*
X024193Y005094D02*
X024136Y005094D01*
X024136Y005252D02*
X024193Y005252D01*
X024193Y005411D02*
X024136Y005411D01*
X024136Y005569D02*
X024193Y005569D01*
X024510Y005569D02*
X026822Y005569D01*
X026709Y005411D02*
X024629Y005411D01*
X024676Y005252D02*
X026659Y005252D01*
X026659Y005094D02*
X024673Y005094D01*
X024617Y004935D02*
X026718Y004935D01*
X026845Y004777D02*
X024482Y004777D01*
X023846Y004777D02*
X023531Y004777D01*
X023658Y004935D02*
X023711Y004935D01*
X023700Y005411D02*
X023667Y005411D01*
X023554Y005569D02*
X023819Y005569D01*
X024761Y006250D02*
X024820Y006392D01*
X024820Y006568D01*
X024753Y006729D01*
X024629Y006853D01*
X024468Y006920D01*
X024324Y006920D01*
X023481Y007771D01*
X023481Y009034D01*
X023440Y009133D01*
X023364Y009209D01*
X023265Y009250D01*
X023158Y009250D01*
X020392Y009250D01*
X018926Y010716D01*
X018966Y010695D01*
X019043Y010670D01*
X019124Y010658D01*
X019136Y010658D01*
X019136Y011146D01*
X019193Y011146D01*
X019193Y011202D01*
X019681Y011202D01*
X019681Y011215D01*
X019668Y011295D01*
X019643Y011372D01*
X019606Y011445D01*
X019558Y011511D01*
X019501Y011568D01*
X019435Y011616D01*
X019363Y011653D01*
X019285Y011678D01*
X019205Y011691D01*
X019193Y011691D01*
X019193Y011202D01*
X019136Y011202D01*
X019136Y011691D01*
X019124Y011691D01*
X019043Y011678D01*
X018966Y011653D01*
X018894Y011616D01*
X018828Y011568D01*
X018770Y011511D01*
X018722Y011445D01*
X018686Y011372D01*
X018683Y011363D01*
X018635Y011478D01*
X018484Y011629D01*
X018288Y011710D01*
X021068Y011710D01*
X021659Y011119D01*
X021659Y011067D01*
X021741Y010870D01*
X021892Y010719D01*
X022089Y010638D01*
X022141Y010638D01*
X022627Y010151D01*
X022726Y010110D01*
X028610Y010110D01*
X028610Y006250D01*
X024761Y006250D01*
X024807Y006362D02*
X028610Y006362D01*
X028610Y006520D02*
X024820Y006520D01*
X024774Y006679D02*
X028610Y006679D01*
X028610Y006837D02*
X024645Y006837D01*
X024250Y006996D02*
X028610Y006996D01*
X028610Y007154D02*
X027191Y007154D01*
X027134Y007097D02*
X027251Y007214D01*
X027251Y008666D01*
X027134Y008783D01*
X025683Y008783D01*
X025680Y008780D01*
X025677Y008783D01*
X024226Y008783D01*
X024109Y008666D01*
X024109Y007214D01*
X024226Y007097D01*
X025677Y007097D01*
X025680Y007100D01*
X025683Y007097D01*
X027134Y007097D01*
X027251Y007313D02*
X028610Y007313D01*
X028610Y007471D02*
X027251Y007471D01*
X027251Y007630D02*
X028610Y007630D01*
X028610Y007788D02*
X027251Y007788D01*
X027251Y007947D02*
X028610Y007947D01*
X028610Y008105D02*
X027251Y008105D01*
X027251Y008264D02*
X028610Y008264D01*
X028610Y008422D02*
X027251Y008422D01*
X027251Y008581D02*
X028610Y008581D01*
X028610Y008739D02*
X027178Y008739D01*
X028610Y008898D02*
X023481Y008898D01*
X023472Y009056D02*
X028610Y009056D01*
X028610Y009215D02*
X023351Y009215D01*
X023481Y008739D02*
X024182Y008739D01*
X024109Y008581D02*
X023481Y008581D01*
X023481Y008422D02*
X024109Y008422D01*
X024109Y008264D02*
X023481Y008264D01*
X023481Y008105D02*
X024109Y008105D01*
X024109Y007947D02*
X023481Y007947D01*
X023481Y007788D02*
X024109Y007788D01*
X024109Y007630D02*
X023622Y007630D01*
X023779Y007471D02*
X024109Y007471D01*
X024109Y007313D02*
X023936Y007313D01*
X024093Y007154D02*
X024169Y007154D01*
X023647Y006837D02*
X014558Y006837D01*
X014656Y006996D02*
X023490Y006996D01*
X023333Y007154D02*
X022191Y007154D01*
X022251Y007313D02*
X023176Y007313D01*
X023019Y007471D02*
X022251Y007471D01*
X022251Y007630D02*
X022941Y007630D01*
X022941Y007788D02*
X022251Y007788D01*
X022251Y007947D02*
X022941Y007947D01*
X022941Y008105D02*
X022251Y008105D01*
X022251Y008264D02*
X022941Y008264D01*
X022941Y008422D02*
X022251Y008422D01*
X022251Y008581D02*
X022941Y008581D01*
X022613Y010166D02*
X019476Y010166D01*
X019318Y010324D02*
X022454Y010324D01*
X022296Y010483D02*
X019159Y010483D01*
X019193Y010658D02*
X019205Y010658D01*
X019285Y010670D01*
X019363Y010695D01*
X019435Y010732D01*
X019501Y010780D01*
X019558Y010838D01*
X019606Y010903D01*
X019643Y010976D01*
X019668Y011053D01*
X019681Y011133D01*
X019681Y011146D01*
X019193Y011146D01*
X019193Y010658D01*
X019193Y010800D02*
X019136Y010800D01*
X019136Y010958D02*
X019193Y010958D01*
X019193Y011117D02*
X019136Y011117D01*
X019136Y011275D02*
X019193Y011275D01*
X019193Y011434D02*
X019136Y011434D01*
X019136Y011592D02*
X019193Y011592D01*
X019468Y011592D02*
X021186Y011592D01*
X021345Y011434D02*
X019612Y011434D01*
X019671Y011275D02*
X021503Y011275D01*
X021659Y011117D02*
X019678Y011117D01*
X019634Y010958D02*
X021705Y010958D01*
X021812Y010800D02*
X019520Y010800D01*
X019001Y010641D02*
X022081Y010641D01*
X022669Y011434D02*
X022707Y011434D01*
X022839Y011592D02*
X022537Y011592D01*
X022068Y012068D02*
X036560Y012068D01*
X036560Y012226D02*
X022120Y012226D01*
X022113Y012385D02*
X036598Y012385D01*
X036687Y012543D02*
X022039Y012543D01*
X022183Y012702D02*
X036900Y012702D01*
X036746Y012860D02*
X022342Y012860D01*
X022500Y013019D02*
X036680Y013019D01*
X036660Y013177D02*
X035758Y013177D01*
X035795Y013214D02*
X035795Y014666D01*
X035677Y014783D01*
X034226Y014783D01*
X034109Y014666D01*
X034109Y013214D01*
X034226Y013097D01*
X035677Y013097D01*
X035795Y013214D01*
X035795Y013336D02*
X036677Y013336D01*
X036743Y013494D02*
X035795Y013494D01*
X035795Y013653D02*
X036896Y013653D01*
X036693Y013811D02*
X035795Y013811D01*
X035795Y013970D02*
X036600Y013970D01*
X036560Y014128D02*
X035795Y014128D01*
X035795Y014287D02*
X036560Y014287D01*
X036623Y014445D02*
X035795Y014445D01*
X035795Y014604D02*
X036747Y014604D01*
X036842Y014762D02*
X035698Y014762D01*
X036660Y015079D02*
X024561Y015079D01*
X024719Y015238D02*
X036660Y015238D01*
X036703Y015396D02*
X024878Y015396D01*
X025036Y015555D02*
X036798Y015555D01*
X036791Y015713D02*
X025195Y015713D01*
X025353Y015872D02*
X036641Y015872D01*
X036575Y016030D02*
X025512Y016030D01*
X025670Y016189D02*
X036560Y016189D01*
X036582Y016347D02*
X025829Y016347D01*
X025987Y016506D02*
X036649Y016506D01*
X036809Y016664D02*
X026146Y016664D01*
X026304Y016823D02*
X036781Y016823D01*
X036695Y016981D02*
X026463Y016981D01*
X026621Y017140D02*
X036660Y017140D01*
X036662Y017298D02*
X026780Y017298D01*
X026938Y017457D02*
X036728Y017457D01*
X036859Y017615D02*
X027097Y017615D01*
X027255Y017774D02*
X036730Y017774D01*
X036616Y017932D02*
X028654Y017932D01*
X028778Y018091D02*
X036560Y018091D01*
X036560Y018249D02*
X028820Y018249D01*
X028803Y018408D02*
X036607Y018408D01*
X036710Y018566D02*
X033048Y018566D01*
X033206Y018725D02*
X036879Y018725D01*
X036736Y018883D02*
X033365Y018883D01*
X033523Y019042D02*
X036670Y019042D01*
X036660Y019200D02*
X033682Y019200D01*
X033840Y019359D02*
X035285Y019359D01*
X035056Y019517D02*
X033999Y019517D01*
X034532Y019676D02*
X034904Y019676D01*
X034838Y019834D02*
X034674Y019834D01*
X034740Y019993D02*
X034773Y019993D01*
X034770Y020151D02*
X034750Y020151D01*
X034770Y020310D02*
X034723Y020310D01*
X034648Y020468D02*
X034814Y020468D01*
X034880Y020627D02*
X034471Y020627D01*
X034998Y020785D02*
X033330Y020785D01*
X033030Y020785D02*
X031330Y020785D01*
X031030Y020785D02*
X029330Y020785D01*
X029030Y020785D02*
X027648Y020785D01*
X027750Y020627D02*
X027889Y020627D01*
X028471Y020627D02*
X028770Y020627D01*
X028662Y020468D02*
X028648Y020468D01*
X029590Y020627D02*
X029889Y020627D01*
X029712Y020468D02*
X029698Y020468D01*
X030471Y020627D02*
X030770Y020627D01*
X030662Y020468D02*
X030648Y020468D01*
X031590Y020627D02*
X031889Y020627D01*
X031712Y020468D02*
X031698Y020468D01*
X032471Y020627D02*
X032770Y020627D01*
X032662Y020468D02*
X032648Y020468D01*
X033590Y020627D02*
X033889Y020627D01*
X033712Y020468D02*
X033698Y020468D01*
X031828Y019676D02*
X031331Y019676D01*
X031029Y019676D02*
X030532Y019676D01*
X030674Y019834D02*
X030770Y019834D01*
X031590Y019834D02*
X031686Y019834D01*
X029828Y019676D02*
X029331Y019676D01*
X029029Y019676D02*
X028532Y019676D01*
X028674Y019834D02*
X028770Y019834D01*
X029590Y019834D02*
X029686Y019834D01*
X027828Y019676D02*
X027648Y019676D01*
X026712Y019676D02*
X025748Y019676D01*
X025750Y019834D02*
X026610Y019834D01*
X026610Y019993D02*
X025750Y019993D01*
X025750Y020151D02*
X026610Y020151D01*
X026610Y020310D02*
X025750Y020310D01*
X025750Y020468D02*
X026610Y020468D01*
X026610Y020627D02*
X025706Y020627D01*
X024654Y020627D02*
X024590Y020627D01*
X024330Y020785D02*
X026712Y020785D01*
X024610Y019834D02*
X024590Y019834D01*
X024612Y019676D02*
X024331Y019676D01*
X024029Y019676D02*
X023532Y019676D01*
X023674Y019834D02*
X023770Y019834D01*
X023662Y020468D02*
X023648Y020468D01*
X023770Y020627D02*
X023471Y020627D01*
X024030Y020785D02*
X022330Y020785D01*
X022030Y020785D02*
X020330Y020785D01*
X020030Y020785D02*
X018330Y020785D01*
X018030Y020785D02*
X015830Y020785D01*
X015530Y020785D02*
X013830Y020785D01*
X013530Y020785D02*
X011830Y020785D01*
X011530Y020785D02*
X009830Y020785D01*
X009530Y020785D02*
X006862Y020785D01*
X006980Y020627D02*
X009270Y020627D01*
X009162Y020468D02*
X007046Y020468D01*
X007090Y020310D02*
X009110Y020310D01*
X009110Y020151D02*
X007090Y020151D01*
X007087Y019993D02*
X009161Y019993D01*
X009270Y019834D02*
X007022Y019834D01*
X006956Y019676D02*
X009529Y019676D01*
X009831Y019676D02*
X010370Y019676D01*
X010215Y019834D02*
X010090Y019834D01*
X010660Y019834D02*
X010700Y019834D01*
X010700Y019676D02*
X010660Y019676D01*
X010625Y019517D02*
X018261Y019517D01*
X018420Y019359D02*
X010783Y019359D01*
X010942Y019200D02*
X017744Y019200D01*
X018016Y019200D02*
X018578Y019200D01*
X018737Y019042D02*
X018241Y019042D01*
X018314Y018883D02*
X018703Y018883D01*
X018505Y018725D02*
X018320Y018725D01*
X018268Y018566D02*
X018440Y018566D01*
X017895Y017700D02*
X017582Y017700D01*
X017592Y017710D01*
X021528Y017710D01*
X021631Y017607D01*
X021792Y017540D01*
X021805Y017540D01*
X021739Y017475D01*
X021667Y017300D01*
X021643Y017372D01*
X021608Y017442D01*
X021561Y017506D01*
X021506Y017561D01*
X021442Y017608D01*
X021372Y017643D01*
X021297Y017668D01*
X021219Y017680D01*
X021200Y017680D01*
X021200Y017200D01*
X021160Y017200D01*
X021160Y017680D01*
X021141Y017680D01*
X021063Y017668D01*
X020988Y017643D01*
X020918Y017608D01*
X020854Y017561D01*
X020799Y017506D01*
X020752Y017442D01*
X020717Y017372D01*
X020692Y017297D01*
X020680Y017219D01*
X020680Y017200D01*
X021160Y017200D01*
X021160Y017160D01*
X021200Y017160D01*
X021200Y016680D01*
X021219Y016680D01*
X021297Y016692D01*
X021372Y016717D01*
X021442Y016752D01*
X021506Y016799D01*
X021561Y016854D01*
X021608Y016918D01*
X021643Y016988D01*
X021667Y017060D01*
X021729Y016911D01*
X021468Y016650D01*
X018592Y016650D01*
X018200Y017042D01*
X018200Y017395D01*
X017895Y017700D01*
X017980Y017615D02*
X020932Y017615D01*
X021160Y017615D02*
X021200Y017615D01*
X021200Y017457D02*
X021160Y017457D01*
X021160Y017298D02*
X021200Y017298D01*
X021160Y017160D02*
X020680Y017160D01*
X020680Y017141D01*
X020692Y017063D01*
X020717Y016988D01*
X020752Y016918D01*
X020799Y016854D01*
X020854Y016799D01*
X020918Y016752D01*
X020988Y016717D01*
X021063Y016692D01*
X021141Y016680D01*
X021160Y016680D01*
X021160Y017160D01*
X021160Y017140D02*
X021200Y017140D01*
X021200Y016981D02*
X021160Y016981D01*
X021160Y016823D02*
X021200Y016823D01*
X021482Y016664D02*
X018578Y016664D01*
X018419Y016823D02*
X020830Y016823D01*
X020720Y016981D02*
X018261Y016981D01*
X018200Y017140D02*
X020680Y017140D01*
X020693Y017298D02*
X018200Y017298D01*
X018139Y017457D02*
X020763Y017457D01*
X021428Y017615D02*
X021623Y017615D01*
X021597Y017457D02*
X021732Y017457D01*
X021700Y016981D02*
X021640Y016981D01*
X021641Y016823D02*
X021530Y016823D01*
X024402Y014921D02*
X036721Y014921D01*
X038513Y014604D02*
X039860Y014604D01*
X039860Y014762D02*
X038618Y014762D01*
X038739Y014921D02*
X039860Y014921D01*
X039828Y015079D02*
X038800Y015079D01*
X038800Y015238D02*
X039670Y015238D01*
X039511Y015396D02*
X038757Y015396D01*
X038662Y015555D02*
X039353Y015555D01*
X039194Y015713D02*
X038469Y015713D01*
X038619Y015872D02*
X039036Y015872D01*
X038896Y016030D02*
X038685Y016030D01*
X038700Y016189D02*
X038860Y016189D01*
X038860Y016347D02*
X038678Y016347D01*
X038611Y016506D02*
X038860Y016506D01*
X038860Y016664D02*
X038474Y016664D01*
X038679Y016823D02*
X038860Y016823D01*
X038860Y016981D02*
X038765Y016981D01*
X038800Y017140D02*
X038860Y017140D01*
X038860Y017298D02*
X038798Y017298D01*
X038860Y017457D02*
X038732Y017457D01*
X038860Y017615D02*
X038601Y017615D01*
X038530Y017774D02*
X038860Y017774D01*
X038860Y017932D02*
X038644Y017932D01*
X038700Y018091D02*
X038860Y018091D01*
X038860Y018249D02*
X038700Y018249D01*
X038653Y018408D02*
X038860Y018408D01*
X038860Y018566D02*
X038550Y018566D01*
X038581Y018725D02*
X038860Y018725D01*
X038860Y018883D02*
X038724Y018883D01*
X038790Y019042D02*
X038860Y019042D01*
X038860Y019200D02*
X038800Y019200D01*
X038773Y019359D02*
X038860Y019359D01*
X038860Y019517D02*
X038699Y019517D01*
X038860Y019676D02*
X038523Y019676D01*
X038710Y019834D02*
X038860Y019834D01*
X038860Y019993D02*
X038789Y019993D01*
X036838Y019676D02*
X036456Y019676D01*
X036522Y019834D02*
X036650Y019834D01*
X036761Y019517D02*
X036304Y019517D01*
X036075Y019359D02*
X036687Y019359D01*
X034205Y014762D02*
X032155Y014762D01*
X032134Y014783D02*
X030683Y014783D01*
X030680Y014780D01*
X030677Y014783D01*
X029226Y014783D01*
X029109Y014666D01*
X029109Y013214D01*
X029226Y013097D01*
X030677Y013097D01*
X030680Y013100D01*
X030683Y013097D01*
X032134Y013097D01*
X032251Y013214D01*
X032251Y014666D01*
X032134Y014783D01*
X032251Y014604D02*
X034109Y014604D01*
X034109Y014445D02*
X032251Y014445D01*
X032251Y014287D02*
X034109Y014287D01*
X034109Y014128D02*
X032251Y014128D01*
X032251Y013970D02*
X034109Y013970D01*
X034109Y013811D02*
X032251Y013811D01*
X032251Y013653D02*
X034109Y013653D01*
X034109Y013494D02*
X032251Y013494D01*
X032251Y013336D02*
X034109Y013336D01*
X034146Y013177D02*
X032214Y013177D01*
X032547Y011592D02*
X032829Y011592D01*
X032703Y011434D02*
X032673Y011434D01*
X031845Y011592D02*
X029482Y011592D01*
X029617Y011434D02*
X031718Y011434D01*
X031659Y011275D02*
X029673Y011275D01*
X029681Y011156D02*
X029193Y011156D01*
X029193Y010668D01*
X029205Y010668D01*
X029285Y010680D01*
X029363Y010705D01*
X029435Y010742D01*
X029501Y010790D01*
X029558Y010848D01*
X029606Y010913D01*
X029643Y010986D01*
X029668Y011063D01*
X029681Y011143D01*
X029681Y011156D01*
X029677Y011117D02*
X031659Y011117D01*
X031576Y010958D02*
X029629Y010958D01*
X029510Y010800D02*
X031418Y010800D01*
X033450Y010641D02*
X036785Y010641D01*
X036804Y010800D02*
X034510Y010800D01*
X034501Y010790D02*
X034558Y010848D01*
X034606Y010913D01*
X034643Y010986D01*
X034668Y011063D01*
X034681Y011143D01*
X034681Y011156D01*
X034193Y011156D01*
X034193Y010668D01*
X034205Y010668D01*
X034285Y010680D01*
X034363Y010705D01*
X034435Y010742D01*
X034501Y010790D01*
X034629Y010958D02*
X036705Y010958D01*
X036660Y011117D02*
X034677Y011117D01*
X034673Y011275D02*
X036660Y011275D01*
X036718Y011434D02*
X034617Y011434D01*
X034482Y011592D02*
X036836Y011592D01*
X036753Y011751D02*
X021791Y011751D01*
X021931Y011909D02*
X036625Y011909D01*
X038507Y011751D02*
X039860Y011751D01*
X039860Y011909D02*
X038635Y011909D01*
X038700Y012068D02*
X039860Y012068D01*
X039860Y012226D02*
X038700Y012226D01*
X038662Y012385D02*
X039860Y012385D01*
X039860Y012543D02*
X038573Y012543D01*
X038558Y012702D02*
X039860Y012702D01*
X039860Y012860D02*
X038714Y012860D01*
X038780Y013019D02*
X039860Y013019D01*
X039860Y013177D02*
X038800Y013177D01*
X038783Y013336D02*
X039860Y013336D01*
X039860Y013494D02*
X038717Y013494D01*
X038564Y013653D02*
X039860Y013653D01*
X039860Y013811D02*
X038567Y013811D01*
X038660Y013970D02*
X039860Y013970D01*
X039860Y014128D02*
X038700Y014128D01*
X038700Y014287D02*
X039860Y014287D01*
X039860Y014445D02*
X038637Y014445D01*
X038624Y011592D02*
X039860Y011592D01*
X039860Y011434D02*
X038742Y011434D01*
X038800Y011275D02*
X039860Y011275D01*
X039860Y011117D02*
X038800Y011117D01*
X038755Y010958D02*
X039860Y010958D01*
X039860Y010800D02*
X038656Y010800D01*
X038475Y010641D02*
X039860Y010641D01*
X039860Y010483D02*
X038622Y010483D01*
X038687Y010324D02*
X039860Y010324D01*
X039860Y010166D02*
X038700Y010166D01*
X038675Y010007D02*
X039860Y010007D01*
X039860Y009849D02*
X038605Y009849D01*
X038488Y009690D02*
X039860Y009690D01*
X039860Y009532D02*
X038685Y009532D01*
X038767Y009373D02*
X039860Y009373D01*
X039860Y009215D02*
X038800Y009215D01*
X038796Y009056D02*
X039860Y009056D01*
X039860Y008898D02*
X038730Y008898D01*
X038595Y008739D02*
X039860Y008739D01*
X039860Y008581D02*
X038536Y008581D01*
X038647Y008422D02*
X039860Y008422D01*
X039860Y008264D02*
X038700Y008264D01*
X038700Y008105D02*
X039860Y008105D01*
X039860Y007947D02*
X038650Y007947D01*
X038544Y007788D02*
X039860Y007788D01*
X039860Y007630D02*
X038587Y007630D01*
X038726Y007471D02*
X039860Y007471D01*
X039860Y007313D02*
X038792Y007313D01*
X038800Y007154D02*
X039860Y007154D01*
X039860Y006996D02*
X038771Y006996D01*
X038693Y006837D02*
X039860Y006837D01*
X039860Y006679D02*
X038509Y006679D01*
X038596Y006520D02*
X039860Y006520D01*
X039860Y006362D02*
X038672Y006362D01*
X038700Y006203D02*
X039860Y006203D01*
X039860Y006045D02*
X038691Y006045D01*
X038625Y005886D02*
X039860Y005886D01*
X039860Y005728D02*
X038484Y005728D01*
X038647Y005569D02*
X039860Y005569D01*
X039860Y005411D02*
X038751Y005411D01*
X038800Y005252D02*
X039860Y005252D01*
X039860Y005094D02*
X038800Y005094D01*
X038745Y004935D02*
X039860Y004935D01*
X039860Y004777D02*
X038633Y004777D01*
X038498Y004618D02*
X039860Y004618D01*
X039860Y004460D02*
X038631Y004460D01*
X038697Y004301D02*
X039860Y004301D01*
X039860Y004143D02*
X038700Y004143D01*
X038666Y003984D02*
X039860Y003984D01*
X039860Y003826D02*
X038582Y003826D01*
X038506Y003667D02*
X039860Y003667D01*
X039860Y003509D02*
X038691Y003509D01*
X038773Y003350D02*
X039860Y003350D01*
X039860Y003192D02*
X038270Y003192D01*
X038270Y003160D02*
X038800Y003160D01*
X038800Y003137D01*
X038786Y003051D01*
X038760Y002969D01*
X038720Y002892D01*
X038670Y002822D01*
X038608Y002760D01*
X038538Y002710D01*
X038461Y002670D01*
X038379Y002644D01*
X038293Y002630D01*
X038270Y002630D01*
X038270Y003160D01*
X038230Y003160D02*
X038230Y002630D01*
X038207Y002630D01*
X038121Y002644D01*
X038039Y002670D01*
X037962Y002710D01*
X037892Y002760D01*
X037830Y002822D01*
X037780Y002892D01*
X037740Y002969D01*
X037714Y003051D01*
X037700Y003137D01*
X037700Y003160D01*
X038230Y003160D01*
X038230Y003192D02*
X037130Y003192D01*
X037130Y003160D02*
X037660Y003160D01*
X037660Y003137D01*
X037646Y003051D01*
X037620Y002969D01*
X037580Y002892D01*
X037530Y002822D01*
X037468Y002760D01*
X037398Y002710D01*
X037321Y002670D01*
X037239Y002644D01*
X037153Y002630D01*
X037130Y002630D01*
X037130Y003160D01*
X037090Y003160D02*
X037090Y002630D01*
X037067Y002630D01*
X036981Y002644D01*
X036899Y002670D01*
X036822Y002710D01*
X036752Y002760D01*
X036690Y002822D01*
X036640Y002892D01*
X036600Y002969D01*
X036574Y003051D01*
X036560Y003137D01*
X036560Y003160D01*
X037090Y003160D01*
X037090Y003192D02*
X035250Y003192D01*
X035250Y003350D02*
X036587Y003350D01*
X036669Y003509D02*
X035250Y003509D01*
X035250Y003667D02*
X036854Y003667D01*
X036678Y003826D02*
X035250Y003826D01*
X035250Y003984D02*
X036594Y003984D01*
X036560Y004143D02*
X035250Y004143D01*
X035250Y004301D02*
X036563Y004301D01*
X036629Y004460D02*
X035250Y004460D01*
X035250Y004618D02*
X036762Y004618D01*
X036827Y004777D02*
X035250Y004777D01*
X035250Y004935D02*
X036715Y004935D01*
X036660Y005094D02*
X035250Y005094D01*
X035250Y005252D02*
X036660Y005252D01*
X036709Y005411D02*
X035250Y005411D01*
X035235Y005569D02*
X036813Y005569D01*
X036776Y005728D02*
X035114Y005728D01*
X034956Y005886D02*
X036635Y005886D01*
X036569Y006045D02*
X034797Y006045D01*
X034639Y006203D02*
X036560Y006203D01*
X036588Y006362D02*
X033450Y006362D01*
X033450Y006520D02*
X036664Y006520D01*
X036844Y006679D02*
X033450Y006679D01*
X033450Y006837D02*
X036767Y006837D01*
X036689Y006996D02*
X033450Y006996D01*
X033450Y007154D02*
X034159Y007154D01*
X034109Y007204D02*
X034226Y007087D01*
X035677Y007087D01*
X035795Y007204D01*
X035795Y008656D01*
X035677Y008773D01*
X034226Y008773D01*
X034109Y008656D01*
X034109Y007204D01*
X034109Y007313D02*
X033450Y007313D01*
X033450Y007471D02*
X034109Y007471D01*
X034109Y007630D02*
X033450Y007630D01*
X033450Y007788D02*
X034109Y007788D01*
X034109Y007947D02*
X033450Y007947D01*
X033450Y008105D02*
X034109Y008105D01*
X034109Y008264D02*
X033450Y008264D01*
X033450Y008422D02*
X034109Y008422D01*
X034109Y008581D02*
X033450Y008581D01*
X033450Y008739D02*
X034192Y008739D01*
X033450Y008898D02*
X036730Y008898D01*
X036664Y009056D02*
X033450Y009056D01*
X033450Y009215D02*
X036660Y009215D01*
X036693Y009373D02*
X033450Y009373D01*
X033450Y009532D02*
X036775Y009532D01*
X036823Y009690D02*
X033450Y009690D01*
X033450Y009849D02*
X036655Y009849D01*
X036585Y010007D02*
X033450Y010007D01*
X033450Y010166D02*
X036560Y010166D01*
X036573Y010324D02*
X033450Y010324D01*
X033450Y010483D02*
X036638Y010483D01*
X034193Y010800D02*
X034136Y010800D01*
X034136Y010958D02*
X034193Y010958D01*
X034193Y011117D02*
X034136Y011117D01*
X034136Y011275D02*
X034193Y011275D01*
X034193Y011434D02*
X034136Y011434D01*
X034136Y011592D02*
X034193Y011592D01*
X033847Y011592D02*
X033531Y011592D01*
X033657Y011434D02*
X033712Y011434D01*
X033700Y010958D02*
X033667Y010958D01*
X033554Y010800D02*
X033818Y010800D01*
X035711Y008739D02*
X036865Y008739D01*
X036724Y008581D02*
X035795Y008581D01*
X035795Y008422D02*
X036613Y008422D01*
X036560Y008264D02*
X035795Y008264D01*
X035795Y008105D02*
X036560Y008105D01*
X036610Y007947D02*
X035795Y007947D01*
X035795Y007788D02*
X036716Y007788D01*
X036873Y007630D02*
X035795Y007630D01*
X035795Y007471D02*
X036734Y007471D01*
X036668Y007313D02*
X035795Y007313D01*
X035745Y007154D02*
X036660Y007154D01*
X034509Y005569D02*
X034499Y005569D01*
X034624Y005411D02*
X034668Y005411D01*
X034675Y005252D02*
X034710Y005252D01*
X034681Y005146D02*
X034193Y005146D01*
X034193Y004658D01*
X034205Y004658D01*
X034285Y004670D01*
X034363Y004695D01*
X034435Y004732D01*
X034501Y004780D01*
X034558Y004838D01*
X034606Y004903D01*
X034643Y004976D01*
X034668Y005053D01*
X034681Y005133D01*
X034681Y005146D01*
X034674Y005094D02*
X034710Y005094D01*
X034710Y004935D02*
X034622Y004935D01*
X034710Y004777D02*
X034496Y004777D01*
X034193Y004777D02*
X034136Y004777D01*
X034136Y004935D02*
X034193Y004935D01*
X034193Y005094D02*
X034136Y005094D01*
X034136Y005252D02*
X034193Y005252D01*
X034193Y005411D02*
X034136Y005411D01*
X034136Y005569D02*
X034193Y005569D01*
X033829Y005569D02*
X033544Y005569D01*
X033663Y005411D02*
X033705Y005411D01*
X033706Y004935D02*
X033662Y004935D01*
X033541Y004777D02*
X033833Y004777D01*
X032819Y004777D02*
X032557Y004777D01*
X032677Y004935D02*
X032698Y004935D01*
X031835Y004777D02*
X029482Y004777D01*
X029501Y004790D02*
X029558Y004848D01*
X029606Y004913D01*
X029643Y004986D01*
X029668Y005063D01*
X029681Y005143D01*
X029681Y005156D01*
X029193Y005156D01*
X029193Y004668D01*
X029205Y004668D01*
X029285Y004680D01*
X029363Y004705D01*
X029435Y004742D01*
X029501Y004790D01*
X029617Y004935D02*
X031714Y004935D01*
X031659Y005094D02*
X029673Y005094D01*
X029676Y005252D02*
X031659Y005252D01*
X031568Y005411D02*
X029629Y005411D01*
X029510Y005569D02*
X031409Y005569D01*
X029193Y005569D02*
X029136Y005569D01*
X029136Y005411D02*
X029193Y005411D01*
X029193Y005252D02*
X029136Y005252D01*
X029136Y005094D02*
X029193Y005094D01*
X029193Y004935D02*
X029136Y004935D01*
X029136Y004777D02*
X029193Y004777D01*
X028846Y004777D02*
X028531Y004777D01*
X028658Y004935D02*
X028711Y004935D01*
X028700Y005411D02*
X028667Y005411D01*
X028554Y005569D02*
X028819Y005569D01*
X023953Y006362D02*
X014678Y006362D01*
X014590Y006520D02*
X023940Y006520D01*
X023804Y006679D02*
X014361Y006679D01*
X014690Y007154D02*
X015625Y007154D01*
X015683Y007097D02*
X015565Y007214D01*
X015565Y008666D01*
X015683Y008783D01*
X017134Y008783D01*
X017251Y008666D01*
X017251Y007214D01*
X017134Y007097D01*
X015683Y007097D01*
X015565Y007313D02*
X014677Y007313D01*
X014610Y007471D02*
X015565Y007471D01*
X015565Y007630D02*
X014427Y007630D01*
X014509Y007788D02*
X015565Y007788D01*
X015565Y007947D02*
X014635Y007947D01*
X014690Y008105D02*
X015565Y008105D01*
X015565Y008264D02*
X014690Y008264D01*
X014632Y008422D02*
X015565Y008422D01*
X015565Y008581D02*
X014662Y008581D01*
X014821Y008739D02*
X015639Y008739D01*
X015138Y009056D02*
X019822Y009056D01*
X019664Y009215D02*
X015296Y009215D01*
X015455Y009373D02*
X019505Y009373D01*
X019347Y009532D02*
X015613Y009532D01*
X015772Y009690D02*
X019188Y009690D01*
X019030Y009849D02*
X015930Y009849D01*
X016089Y010007D02*
X018871Y010007D01*
X018713Y010166D02*
X016247Y010166D01*
X016406Y010324D02*
X018554Y010324D01*
X018396Y010483D02*
X016564Y010483D01*
X016650Y010641D02*
X017081Y010641D01*
X017311Y010641D02*
X018065Y010641D01*
X017796Y010800D02*
X017580Y010800D01*
X017687Y010958D02*
X017689Y010958D01*
X016812Y010800D02*
X016650Y010800D01*
X016650Y010958D02*
X016705Y010958D01*
X016659Y011117D02*
X016650Y011117D01*
X016650Y011275D02*
X016659Y011275D01*
X016650Y011434D02*
X016722Y011434D01*
X016650Y011592D02*
X016855Y011592D01*
X016650Y011751D02*
X017469Y011751D01*
X017627Y011909D02*
X016650Y011909D01*
X016110Y011909D02*
X015891Y011909D01*
X016049Y012068D02*
X016110Y012068D01*
X016110Y012128D02*
X016110Y010792D01*
X014664Y009345D01*
X014612Y009469D01*
X014469Y009612D01*
X014281Y009690D01*
X014079Y009690D01*
X013891Y009612D01*
X013748Y009469D01*
X013740Y009450D01*
X007292Y009450D01*
X004067Y012675D01*
X004079Y012670D01*
X004281Y012670D01*
X004469Y012748D01*
X004612Y012891D01*
X004680Y013054D01*
X004748Y012891D01*
X004891Y012748D01*
X005079Y012670D01*
X005281Y012670D01*
X005469Y012748D01*
X005612Y012891D01*
X005680Y013054D01*
X005748Y012891D01*
X005891Y012748D01*
X006079Y012670D01*
X006281Y012670D01*
X006469Y012748D01*
X006612Y012891D01*
X006680Y013054D01*
X006748Y012891D01*
X006891Y012748D01*
X007079Y012670D01*
X007281Y012670D01*
X007469Y012748D01*
X007612Y012891D01*
X007680Y013054D01*
X007748Y012891D01*
X007891Y012748D01*
X008079Y012670D01*
X008281Y012670D01*
X008469Y012748D01*
X008612Y012891D01*
X008680Y013054D01*
X008748Y012891D01*
X008891Y012748D01*
X009079Y012670D01*
X009281Y012670D01*
X009469Y012748D01*
X009612Y012891D01*
X009680Y013054D01*
X009748Y012891D01*
X009891Y012748D01*
X010079Y012670D01*
X010281Y012670D01*
X010469Y012748D01*
X010612Y012891D01*
X010680Y013054D01*
X010748Y012891D01*
X010891Y012748D01*
X011079Y012670D01*
X011281Y012670D01*
X011469Y012748D01*
X011612Y012891D01*
X011680Y013054D01*
X011748Y012891D01*
X011891Y012748D01*
X012079Y012670D01*
X012281Y012670D01*
X012469Y012748D01*
X012612Y012891D01*
X012680Y013054D01*
X012748Y012891D01*
X012891Y012748D01*
X013079Y012670D01*
X013281Y012670D01*
X013469Y012748D01*
X013612Y012891D01*
X013680Y013054D01*
X013748Y012891D01*
X013891Y012748D01*
X014054Y012680D01*
X013891Y012612D01*
X013748Y012469D01*
X013670Y012281D01*
X013670Y012079D01*
X013748Y011891D01*
X013778Y011860D01*
X013751Y011833D01*
X013438Y011520D01*
X013292Y011520D01*
X013131Y011453D01*
X013007Y011329D01*
X012940Y011168D01*
X012940Y010992D01*
X013007Y010831D01*
X013131Y010707D01*
X013292Y010640D01*
X013468Y010640D01*
X013629Y010707D01*
X013753Y010831D01*
X013769Y010870D01*
X013891Y010748D01*
X014079Y010670D01*
X014281Y010670D01*
X014469Y010748D01*
X014612Y010891D01*
X014690Y011079D01*
X014690Y011281D01*
X014637Y011410D01*
X015334Y011410D01*
X015433Y011451D01*
X016110Y012128D01*
X016110Y011751D02*
X015732Y011751D01*
X015574Y011592D02*
X016110Y011592D01*
X016110Y011434D02*
X015390Y011434D01*
X014690Y011275D02*
X016110Y011275D01*
X016110Y011117D02*
X014690Y011117D01*
X014640Y010958D02*
X016110Y010958D01*
X016110Y010800D02*
X014521Y010800D01*
X014437Y010599D02*
X014368Y010634D01*
X014295Y010658D01*
X014219Y010670D01*
X014195Y010670D01*
X014195Y010195D01*
X014165Y010195D01*
X014165Y010670D01*
X014141Y010670D01*
X014065Y010658D01*
X013992Y010634D01*
X013923Y010599D01*
X013861Y010554D01*
X013806Y010499D01*
X013761Y010437D01*
X013726Y010368D01*
X013702Y010295D01*
X013690Y010219D01*
X013690Y010195D01*
X014165Y010195D01*
X014165Y010165D01*
X013690Y010165D01*
X013690Y010141D01*
X013702Y010065D01*
X013726Y009992D01*
X013761Y009923D01*
X013806Y009861D01*
X013861Y009806D01*
X013923Y009761D01*
X013992Y009726D01*
X014065Y009702D01*
X014141Y009690D01*
X007052Y009690D01*
X007210Y009532D02*
X013810Y009532D01*
X014141Y009690D02*
X014165Y009690D01*
X014165Y010165D01*
X014195Y010165D01*
X014195Y010195D01*
X014670Y010195D01*
X014670Y010219D01*
X014658Y010295D01*
X014634Y010368D01*
X014599Y010437D01*
X014554Y010499D01*
X014499Y010554D01*
X014437Y010599D01*
X014347Y010641D02*
X015959Y010641D01*
X015801Y010483D02*
X014566Y010483D01*
X014648Y010324D02*
X015642Y010324D01*
X015484Y010166D02*
X014195Y010166D01*
X014195Y010165D02*
X014670Y010165D01*
X014670Y010141D01*
X014658Y010065D01*
X014634Y009992D01*
X014599Y009923D01*
X014554Y009861D01*
X014499Y009806D01*
X014437Y009761D01*
X014368Y009726D01*
X014295Y009702D01*
X014219Y009690D01*
X015008Y009690D01*
X014850Y009532D02*
X014550Y009532D01*
X014652Y009373D02*
X014691Y009373D01*
X014219Y009690D02*
X014195Y009690D01*
X014195Y010165D01*
X014165Y010166D02*
X006576Y010166D01*
X006418Y010324D02*
X013712Y010324D01*
X013794Y010483D02*
X006259Y010483D01*
X006101Y010641D02*
X013290Y010641D01*
X013470Y010641D02*
X014013Y010641D01*
X014165Y010641D02*
X014195Y010641D01*
X014195Y010483D02*
X014165Y010483D01*
X014165Y010324D02*
X014195Y010324D01*
X014195Y010007D02*
X014165Y010007D01*
X014165Y009849D02*
X014195Y009849D01*
X014195Y009690D02*
X014165Y009690D01*
X013819Y009849D02*
X006893Y009849D01*
X006735Y010007D02*
X013721Y010007D01*
X014541Y009849D02*
X015167Y009849D01*
X015325Y010007D02*
X014639Y010007D01*
X013839Y010800D02*
X013722Y010800D01*
X013038Y010800D02*
X005942Y010800D01*
X005784Y010958D02*
X012954Y010958D01*
X012940Y011117D02*
X005625Y011117D01*
X005467Y011275D02*
X012985Y011275D01*
X013111Y011434D02*
X005308Y011434D01*
X005150Y011592D02*
X013510Y011592D01*
X013669Y011751D02*
X004991Y011751D01*
X004833Y011909D02*
X013740Y011909D01*
X013751Y011833D02*
X013751Y011833D01*
X013675Y012068D02*
X004674Y012068D01*
X004516Y012226D02*
X013670Y012226D01*
X013713Y012385D02*
X004357Y012385D01*
X004199Y012543D02*
X013822Y012543D01*
X014002Y012702D02*
X013358Y012702D01*
X013581Y012860D02*
X013779Y012860D01*
X013695Y013019D02*
X013665Y013019D01*
X013002Y012702D02*
X012358Y012702D01*
X012581Y012860D02*
X012779Y012860D01*
X012695Y013019D02*
X012665Y013019D01*
X012002Y012702D02*
X011358Y012702D01*
X011581Y012860D02*
X011779Y012860D01*
X011695Y013019D02*
X011665Y013019D01*
X011002Y012702D02*
X010358Y012702D01*
X010581Y012860D02*
X010779Y012860D01*
X010695Y013019D02*
X010665Y013019D01*
X010002Y012702D02*
X009358Y012702D01*
X009581Y012860D02*
X009779Y012860D01*
X009695Y013019D02*
X009665Y013019D01*
X009002Y012702D02*
X008358Y012702D01*
X008581Y012860D02*
X008779Y012860D01*
X008695Y013019D02*
X008665Y013019D01*
X008002Y012702D02*
X007358Y012702D01*
X007581Y012860D02*
X007779Y012860D01*
X007695Y013019D02*
X007665Y013019D01*
X007002Y012702D02*
X006358Y012702D01*
X006581Y012860D02*
X006779Y012860D01*
X006695Y013019D02*
X006665Y013019D01*
X006002Y012702D02*
X005358Y012702D01*
X005581Y012860D02*
X005779Y012860D01*
X005695Y013019D02*
X005665Y013019D01*
X005002Y012702D02*
X004358Y012702D01*
X004581Y012860D02*
X004779Y012860D01*
X004695Y013019D02*
X004665Y013019D01*
X003594Y012385D02*
X000500Y012385D01*
X000500Y012543D02*
X003435Y012543D01*
X003752Y012226D02*
X000500Y012226D01*
X000500Y012068D02*
X003911Y012068D01*
X004069Y011909D02*
X000500Y011909D01*
X000500Y011751D02*
X004228Y011751D01*
X004386Y011592D02*
X000500Y011592D01*
X000500Y011434D02*
X004545Y011434D01*
X004703Y011275D02*
X000500Y011275D01*
X000500Y011117D02*
X004862Y011117D01*
X005020Y010958D02*
X000500Y010958D01*
X000500Y010800D02*
X005179Y010800D01*
X005337Y010641D02*
X000500Y010641D01*
X000500Y010483D02*
X005496Y010483D01*
X005654Y010324D02*
X000500Y010324D01*
X000500Y010166D02*
X005813Y010166D01*
X005971Y010007D02*
X000500Y010007D01*
X000500Y009849D02*
X006130Y009849D01*
X006288Y009690D02*
X000500Y009690D01*
X000500Y009532D02*
X006447Y009532D01*
X006605Y009373D02*
X000500Y009373D01*
X000500Y009215D02*
X006764Y009215D01*
X006922Y009056D02*
X000500Y009056D01*
X000500Y008898D02*
X012516Y008898D01*
X012357Y008739D02*
X011070Y008739D01*
X011229Y008581D02*
X012199Y008581D01*
X012040Y008422D02*
X011380Y008422D01*
X011380Y008264D02*
X011882Y008264D01*
X011723Y008105D02*
X011380Y008105D01*
X011380Y007947D02*
X011565Y007947D01*
X011406Y007788D02*
X011356Y007788D01*
X010169Y008581D02*
X008372Y008581D01*
X008372Y008422D02*
X008774Y008422D01*
X008774Y008264D02*
X008372Y008264D01*
X008372Y008105D02*
X008877Y008105D01*
X008774Y007947D02*
X008372Y007947D01*
X008349Y007788D02*
X008798Y007788D01*
X008933Y007630D02*
X008427Y007630D01*
X008610Y007471D02*
X008750Y007471D01*
X008683Y007313D02*
X008677Y007313D01*
X008632Y005886D02*
X008728Y005886D01*
X008887Y005728D02*
X008473Y005728D01*
X007887Y005728D02*
X007473Y005728D01*
X007632Y005886D02*
X007728Y005886D01*
X006887Y005728D02*
X006473Y005728D01*
X006632Y005886D02*
X006728Y005886D01*
X005887Y005728D02*
X005473Y005728D01*
X005632Y005886D02*
X005728Y005886D01*
X004887Y005728D02*
X004473Y005728D01*
X004632Y005886D02*
X004728Y005886D01*
X003887Y005728D02*
X003473Y005728D01*
X003632Y005886D02*
X003728Y005886D01*
X002887Y005728D02*
X002473Y005728D01*
X002632Y005886D02*
X002728Y005886D01*
X001887Y005728D02*
X000500Y005728D01*
X000500Y005886D02*
X001728Y005886D01*
X001662Y006045D02*
X000500Y006045D01*
X000500Y006203D02*
X001650Y006203D01*
X001682Y006362D02*
X000500Y006362D01*
X000500Y006520D02*
X001770Y006520D01*
X001999Y006679D02*
X000500Y006679D01*
X000500Y006837D02*
X000830Y006837D01*
X000806Y006861D02*
X000861Y006806D01*
X000923Y006761D01*
X000992Y006726D01*
X001065Y006702D01*
X001141Y006690D01*
X001165Y006690D01*
X001165Y007165D01*
X000690Y007165D01*
X000690Y007141D01*
X000702Y007065D01*
X000726Y006992D01*
X000761Y006923D01*
X000806Y006861D01*
X000725Y006996D02*
X000500Y006996D01*
X000500Y007154D02*
X000690Y007154D01*
X000690Y007195D02*
X001165Y007195D01*
X001165Y007670D01*
X001141Y007670D01*
X001065Y007658D01*
X000992Y007634D01*
X000923Y007599D01*
X000861Y007554D01*
X000806Y007499D01*
X000761Y007437D01*
X000726Y007368D01*
X000702Y007295D01*
X000690Y007219D01*
X000690Y007195D01*
X000708Y007313D02*
X000500Y007313D01*
X000500Y007471D02*
X000786Y007471D01*
X000983Y007630D02*
X000500Y007630D01*
X000500Y007788D02*
X000740Y007788D01*
X000688Y007947D02*
X000500Y007947D01*
X000500Y008105D02*
X000610Y008105D01*
X000610Y008264D02*
X000500Y008264D01*
X000500Y008422D02*
X000709Y008422D01*
X000500Y008581D02*
X001360Y008581D01*
X001456Y008739D02*
X000500Y008739D01*
X001830Y008739D02*
X002208Y008739D01*
X002111Y008581D02*
X001927Y008581D01*
X002475Y008739D02*
X002852Y008739D01*
X002756Y008581D02*
X002571Y008581D01*
X003119Y008739D02*
X003714Y008739D01*
X003618Y008581D02*
X003216Y008581D01*
X003981Y008739D02*
X004141Y008739D01*
X004408Y008739D02*
X007581Y008739D01*
X007485Y008581D02*
X004505Y008581D01*
X004505Y008422D02*
X004907Y008422D01*
X004907Y008264D02*
X004505Y008264D01*
X004505Y008105D02*
X004907Y008105D01*
X004907Y007947D02*
X004505Y007947D01*
X004481Y007788D02*
X004907Y007788D01*
X004933Y007630D02*
X004427Y007630D01*
X004610Y007471D02*
X004750Y007471D01*
X004683Y007313D02*
X004677Y007313D01*
X001933Y007630D02*
X001377Y007630D01*
X001368Y007634D02*
X001295Y007658D01*
X001219Y007670D01*
X001195Y007670D01*
X001195Y007195D01*
X001165Y007195D01*
X001165Y007165D01*
X001195Y007165D01*
X001195Y007195D01*
X001670Y007195D01*
X001670Y007219D01*
X001658Y007295D01*
X001634Y007368D01*
X001599Y007437D01*
X001554Y007499D01*
X001499Y007554D01*
X001437Y007599D01*
X001368Y007634D01*
X001195Y007630D02*
X001165Y007630D01*
X001165Y007471D02*
X001195Y007471D01*
X001195Y007313D02*
X001165Y007313D01*
X001195Y007165D02*
X001670Y007165D01*
X001670Y007141D01*
X001658Y007065D01*
X001634Y006992D01*
X001599Y006923D01*
X001554Y006861D01*
X001499Y006806D01*
X001437Y006761D01*
X001368Y006726D01*
X001295Y006702D01*
X001219Y006690D01*
X001195Y006690D01*
X001195Y007165D01*
X001195Y007154D02*
X001165Y007154D01*
X001165Y006996D02*
X001195Y006996D01*
X001195Y006837D02*
X001165Y006837D01*
X001530Y006837D02*
X001802Y006837D01*
X001704Y006996D02*
X001635Y006996D01*
X001670Y007154D02*
X001670Y007154D01*
X001683Y007313D02*
X001652Y007313D01*
X001574Y007471D02*
X001750Y007471D01*
X008276Y008739D02*
X010265Y008739D01*
X010639Y008739D02*
X010803Y008739D01*
X014979Y008898D02*
X019981Y008898D01*
X020269Y009373D02*
X028610Y009373D01*
X028610Y009532D02*
X020110Y009532D01*
X019952Y009690D02*
X028610Y009690D01*
X028610Y009849D02*
X019793Y009849D01*
X019635Y010007D02*
X028610Y010007D01*
X028554Y010800D02*
X028818Y010800D01*
X028700Y010958D02*
X028667Y010958D01*
X029136Y010958D02*
X029193Y010958D01*
X029193Y010800D02*
X029136Y010800D01*
X029136Y011117D02*
X029193Y011117D01*
X029193Y011275D02*
X029136Y011275D01*
X029136Y011434D02*
X029193Y011434D01*
X029193Y011592D02*
X029136Y011592D01*
X028847Y011592D02*
X028531Y011592D01*
X028657Y011434D02*
X028712Y011434D01*
X027829Y011592D02*
X027547Y011592D01*
X027673Y011434D02*
X027703Y011434D01*
X026845Y011592D02*
X024468Y011592D01*
X024612Y011434D02*
X026718Y011434D01*
X026659Y011275D02*
X024671Y011275D01*
X024681Y011146D02*
X024193Y011146D01*
X024193Y010658D01*
X024205Y010658D01*
X024285Y010670D01*
X024363Y010695D01*
X024435Y010732D01*
X024501Y010780D01*
X024558Y010838D01*
X024606Y010903D01*
X024643Y010976D01*
X024668Y011053D01*
X024681Y011133D01*
X024681Y011146D01*
X024678Y011117D02*
X026659Y011117D01*
X026576Y010958D02*
X024634Y010958D01*
X024520Y010800D02*
X026418Y010800D01*
X024193Y010800D02*
X024136Y010800D01*
X024136Y010958D02*
X024193Y010958D01*
X024193Y011117D02*
X024136Y011117D01*
X024136Y011275D02*
X024193Y011275D01*
X024193Y011434D02*
X024136Y011434D01*
X024136Y011592D02*
X024193Y011592D01*
X023861Y011592D02*
X023521Y011592D01*
X023653Y011434D02*
X023717Y011434D01*
X023695Y010958D02*
X023671Y010958D01*
X023564Y010800D02*
X023808Y010800D01*
X024136Y013177D02*
X022659Y013177D01*
X022817Y013336D02*
X024109Y013336D01*
X024109Y013494D02*
X022976Y013494D01*
X023134Y013653D02*
X024109Y013653D01*
X024109Y013811D02*
X023293Y013811D01*
X023451Y013970D02*
X024109Y013970D01*
X024109Y014128D02*
X023610Y014128D01*
X023768Y014287D02*
X024109Y014287D01*
X024109Y014445D02*
X023927Y014445D01*
X024085Y014604D02*
X024109Y014604D01*
X027155Y014762D02*
X029205Y014762D01*
X029109Y014604D02*
X027251Y014604D01*
X027251Y014445D02*
X029109Y014445D01*
X029109Y014287D02*
X027251Y014287D01*
X027251Y014128D02*
X029109Y014128D01*
X029109Y013970D02*
X027251Y013970D01*
X027251Y013811D02*
X029109Y013811D01*
X029109Y013653D02*
X027251Y013653D01*
X027251Y013494D02*
X029109Y013494D01*
X029109Y013336D02*
X027251Y013336D01*
X027214Y013177D02*
X029146Y013177D01*
X028106Y017932D02*
X027414Y017932D01*
X022712Y020468D02*
X022698Y020468D01*
X022590Y020627D02*
X022889Y020627D01*
X021770Y020627D02*
X021471Y020627D01*
X021648Y020468D02*
X021662Y020468D01*
X020889Y020627D02*
X020590Y020627D01*
X020698Y020468D02*
X020712Y020468D01*
X019770Y020627D02*
X019471Y020627D01*
X019648Y020468D02*
X019662Y020468D01*
X018889Y020627D02*
X018590Y020627D01*
X018698Y020468D02*
X018712Y020468D01*
X017770Y020627D02*
X017206Y020627D01*
X017250Y020468D02*
X017662Y020468D01*
X017610Y020310D02*
X017250Y020310D01*
X017250Y020151D02*
X017610Y020151D01*
X017661Y019993D02*
X017250Y019993D01*
X017250Y019834D02*
X017770Y019834D01*
X018029Y019676D02*
X017248Y019676D01*
X016112Y019676D02*
X015831Y019676D01*
X015529Y019676D02*
X015032Y019676D01*
X015174Y019834D02*
X015270Y019834D01*
X016090Y019834D02*
X016110Y019834D01*
X015162Y020468D02*
X015148Y020468D01*
X015270Y020627D02*
X014971Y020627D01*
X014389Y020627D02*
X014090Y020627D01*
X014198Y020468D02*
X014212Y020468D01*
X013270Y020627D02*
X012971Y020627D01*
X013148Y020468D02*
X013162Y020468D01*
X012389Y020627D02*
X012090Y020627D01*
X012198Y020468D02*
X012212Y020468D01*
X011270Y020627D02*
X010917Y020627D01*
X010700Y020627D02*
X010660Y020627D01*
X010660Y020468D02*
X010700Y020468D01*
X010700Y020310D02*
X010660Y020310D01*
X010660Y020151D02*
X010700Y020151D01*
X010700Y019993D02*
X010660Y019993D01*
X011145Y019834D02*
X011270Y019834D01*
X011529Y019676D02*
X010990Y019676D01*
X011831Y019676D02*
X012328Y019676D01*
X012186Y019834D02*
X012090Y019834D01*
X013032Y019676D02*
X013529Y019676D01*
X013831Y019676D02*
X014328Y019676D01*
X014186Y019834D02*
X014090Y019834D01*
X013270Y019834D02*
X013174Y019834D01*
X011162Y020468D02*
X011114Y020468D01*
X010443Y020627D02*
X010090Y020627D01*
X010198Y020468D02*
X010246Y020468D01*
X007635Y019517D02*
X006804Y019517D01*
X006575Y019359D02*
X007477Y019359D01*
X007318Y019200D02*
X004200Y019200D01*
X004185Y019042D02*
X005834Y019042D01*
X005722Y018883D02*
X004118Y018883D01*
X003939Y018725D02*
X005681Y018725D01*
X005680Y018660D02*
X005680Y018641D01*
X005692Y018563D01*
X005717Y018488D01*
X005752Y018418D01*
X005799Y018354D01*
X005854Y018299D01*
X005918Y018252D01*
X005988Y018217D01*
X006063Y018192D01*
X006141Y018180D01*
X006160Y018180D01*
X006160Y018660D01*
X005680Y018660D01*
X005692Y018566D02*
X005044Y018566D01*
X005202Y018408D02*
X005760Y018408D01*
X005924Y018249D02*
X005210Y018249D01*
X005210Y018091D02*
X005894Y018091D01*
X005747Y017932D02*
X005182Y017932D01*
X005150Y017774D02*
X005689Y017774D01*
X005680Y017660D02*
X005680Y017641D01*
X005692Y017563D01*
X005717Y017488D01*
X005752Y017418D01*
X005799Y017354D01*
X005854Y017299D01*
X005918Y017252D01*
X005988Y017217D01*
X006063Y017192D01*
X006141Y017180D01*
X006160Y017180D01*
X006160Y017660D01*
X005680Y017660D01*
X005684Y017615D02*
X005150Y017615D01*
X005150Y017457D02*
X005733Y017457D01*
X005855Y017298D02*
X005150Y017298D01*
X005150Y017140D02*
X005981Y017140D01*
X006160Y017140D02*
X006200Y017140D01*
X006219Y017180D02*
X006297Y017168D01*
X006372Y017143D01*
X006442Y017108D01*
X006506Y017061D01*
X006561Y017006D01*
X006608Y016942D01*
X006643Y016872D01*
X006667Y016800D01*
X006739Y016975D01*
X006885Y017121D01*
X007028Y017180D01*
X006885Y017239D01*
X006739Y017385D01*
X006667Y017560D01*
X006643Y017488D01*
X006608Y017418D01*
X006561Y017354D01*
X006506Y017299D01*
X006442Y017252D01*
X006372Y017217D01*
X006297Y017192D01*
X006219Y017180D01*
X006200Y017298D02*
X006160Y017298D01*
X006160Y017457D02*
X006200Y017457D01*
X006200Y017615D02*
X006160Y017615D01*
X006160Y017774D02*
X006200Y017774D01*
X006200Y017932D02*
X006160Y017932D01*
X006160Y018091D02*
X006200Y018091D01*
X006219Y018180D02*
X006297Y018168D01*
X006372Y018143D01*
X006442Y018108D01*
X006506Y018061D01*
X006561Y018006D01*
X006608Y017942D01*
X006643Y017872D01*
X006667Y017800D01*
X006739Y017975D01*
X006885Y018121D01*
X007028Y018180D01*
X006885Y018239D01*
X006739Y018385D01*
X006667Y018560D01*
X006643Y018488D01*
X006608Y018418D01*
X006561Y018354D01*
X006506Y018299D01*
X006442Y018252D01*
X006372Y018217D01*
X006297Y018192D01*
X006219Y018180D01*
X006200Y018249D02*
X006160Y018249D01*
X006160Y018408D02*
X006200Y018408D01*
X006200Y018566D02*
X006160Y018566D01*
X006160Y018725D02*
X006200Y018725D01*
X006200Y018883D02*
X006160Y018883D01*
X006160Y019042D02*
X006200Y019042D01*
X006526Y019042D02*
X006806Y019042D01*
X006701Y018883D02*
X006638Y018883D01*
X005785Y019359D02*
X004169Y019359D01*
X004078Y019517D02*
X005556Y019517D01*
X005404Y019676D02*
X003843Y019676D01*
X003517Y019676D02*
X002843Y019676D01*
X003078Y019517D02*
X003282Y019517D01*
X003191Y019359D02*
X003169Y019359D01*
X002517Y019676D02*
X001748Y019676D01*
X001700Y019676D02*
X001660Y019676D01*
X001612Y019676D02*
X000500Y019676D01*
X000500Y019834D02*
X005338Y019834D01*
X005273Y019993D02*
X000500Y019993D01*
X000500Y020151D02*
X005270Y020151D01*
X005270Y020310D02*
X000500Y020310D01*
X000500Y020468D02*
X005314Y020468D01*
X005380Y020627D02*
X000500Y020627D01*
X000500Y020785D02*
X005498Y020785D01*
X003242Y018883D02*
X003118Y018883D01*
X002939Y018725D02*
X003421Y018725D01*
X004158Y018408D02*
X002202Y018408D01*
X002293Y018249D02*
X004150Y018249D01*
X004150Y018091D02*
X002451Y018091D01*
X002610Y017932D02*
X004178Y017932D01*
X004337Y017774D02*
X002768Y017774D01*
X002927Y017615D02*
X004610Y017615D01*
X004610Y017457D02*
X003085Y017457D01*
X003244Y017298D02*
X004610Y017298D01*
X004610Y017140D02*
X003402Y017140D01*
X003561Y016981D02*
X004610Y016981D01*
X004612Y016823D02*
X003719Y016823D01*
X003878Y016664D02*
X004714Y016664D01*
X004873Y016506D02*
X004036Y016506D01*
X004195Y016347D02*
X005031Y016347D01*
X005190Y016189D02*
X004353Y016189D01*
X004512Y016030D02*
X005348Y016030D01*
X005507Y015872D02*
X004670Y015872D01*
X004224Y015555D02*
X000500Y015555D01*
X000500Y015713D02*
X004065Y015713D01*
X003907Y015872D02*
X000500Y015872D01*
X000500Y016030D02*
X003748Y016030D01*
X003590Y016189D02*
X000500Y016189D01*
X000500Y016347D02*
X003431Y016347D01*
X003273Y016506D02*
X000500Y016506D01*
X000500Y016664D02*
X003114Y016664D01*
X002956Y016823D02*
X000500Y016823D01*
X000500Y016981D02*
X002797Y016981D01*
X002639Y017140D02*
X000500Y017140D01*
X000500Y017298D02*
X002480Y017298D01*
X002322Y017457D02*
X000500Y017457D01*
X000500Y017615D02*
X002163Y017615D01*
X001337Y017774D02*
X000500Y017774D01*
X000500Y017932D02*
X001178Y017932D01*
X001150Y018091D02*
X000500Y018091D01*
X000500Y018249D02*
X001150Y018249D01*
X001158Y018408D02*
X000500Y018408D01*
X000500Y018566D02*
X001316Y018566D01*
X001473Y018725D02*
X000500Y018725D01*
X000500Y018883D02*
X001278Y018883D01*
X001199Y019042D02*
X000500Y019042D01*
X000500Y019200D02*
X001180Y019200D01*
X001212Y019359D02*
X000500Y019359D01*
X000500Y019517D02*
X001310Y019517D01*
X001660Y019517D02*
X001700Y019517D01*
X001700Y019359D02*
X001660Y019359D01*
X001660Y019200D02*
X001700Y019200D01*
X002148Y019359D02*
X002191Y019359D01*
X002282Y019517D02*
X002050Y019517D01*
X002161Y019042D02*
X002175Y019042D01*
X002242Y018883D02*
X002082Y018883D01*
X001887Y018725D02*
X002421Y018725D01*
X002044Y018566D02*
X004316Y018566D01*
X006436Y018249D02*
X006876Y018249D01*
X006855Y018091D02*
X006466Y018091D01*
X006613Y017932D02*
X006722Y017932D01*
X006730Y018408D02*
X006600Y018408D01*
X006627Y017457D02*
X006710Y017457D01*
X006827Y017298D02*
X006505Y017298D01*
X006379Y017140D02*
X006931Y017140D01*
X006746Y016981D02*
X006579Y016981D01*
X006659Y016823D02*
X006676Y016823D01*
X006689Y016506D02*
X006649Y016506D01*
X006554Y016347D02*
X006778Y016347D01*
X007008Y016189D02*
X006273Y016189D01*
X006200Y016189D02*
X006160Y016189D01*
X006160Y016180D02*
X006160Y016660D01*
X005680Y016660D01*
X005680Y016641D01*
X005692Y016563D01*
X005717Y016488D01*
X005752Y016418D01*
X005799Y016354D01*
X005854Y016299D01*
X005918Y016252D01*
X005988Y016217D01*
X006063Y016192D01*
X006141Y016180D01*
X006160Y016180D01*
X006087Y016189D02*
X005953Y016189D01*
X005806Y016347D02*
X005795Y016347D01*
X005711Y016506D02*
X005636Y016506D01*
X005478Y016664D02*
X006160Y016664D01*
X006160Y016506D02*
X006200Y016506D01*
X006200Y016347D02*
X006160Y016347D01*
X006160Y016823D02*
X006200Y016823D01*
X006200Y016981D02*
X006160Y016981D01*
X005781Y016981D02*
X005161Y016981D01*
X005319Y016823D02*
X005701Y016823D01*
X004382Y015396D02*
X000500Y015396D01*
X000500Y015238D02*
X008515Y015238D01*
X008445Y015079D02*
X000500Y015079D01*
X000500Y014921D02*
X008440Y014921D01*
X008494Y014762D02*
X000500Y014762D01*
X000500Y014604D02*
X001854Y014604D01*
X001716Y014445D02*
X000500Y014445D01*
X000500Y014287D02*
X001650Y014287D01*
X001650Y014128D02*
X000500Y014128D01*
X000500Y013970D02*
X001694Y013970D01*
X001799Y013811D02*
X000500Y013811D01*
X000500Y013653D02*
X000988Y013653D01*
X001079Y013690D02*
X000891Y013612D01*
X000748Y013469D01*
X000670Y013281D01*
X000670Y013079D01*
X000748Y012891D01*
X000891Y012748D01*
X001079Y012670D01*
X001281Y012670D01*
X001469Y012748D01*
X001612Y012891D01*
X001690Y013079D01*
X001690Y013281D01*
X001612Y013469D01*
X001469Y013612D01*
X001281Y013690D01*
X001079Y013690D01*
X001372Y013653D02*
X002049Y013653D01*
X002311Y013653D02*
X002988Y013653D01*
X002799Y013811D02*
X002561Y013811D01*
X002666Y013970D02*
X002694Y013970D01*
X002716Y014445D02*
X002644Y014445D01*
X002506Y014604D02*
X002854Y014604D01*
X003506Y014604D02*
X003854Y014604D01*
X003716Y014445D02*
X003644Y014445D01*
X004506Y014604D02*
X004854Y014604D01*
X004716Y014445D02*
X004644Y014445D01*
X005506Y014604D02*
X005854Y014604D01*
X005716Y014445D02*
X005644Y014445D01*
X006506Y014604D02*
X006854Y014604D01*
X006716Y014445D02*
X006644Y014445D01*
X007506Y014604D02*
X007854Y014604D01*
X007716Y014445D02*
X007644Y014445D01*
X008506Y014604D02*
X008639Y014604D01*
X008644Y014445D02*
X008716Y014445D01*
X008692Y016550D02*
X008690Y016552D01*
X008700Y016577D01*
X008700Y016783D01*
X008621Y016975D01*
X008475Y017121D01*
X008332Y017180D01*
X008475Y017239D01*
X008621Y017385D01*
X008700Y017577D01*
X008700Y017783D01*
X008648Y017910D01*
X017028Y017910D01*
X016818Y017700D01*
X016465Y017700D01*
X016180Y017415D01*
X015895Y017700D01*
X015465Y017700D01*
X015166Y017401D01*
X014887Y017680D01*
X014700Y017680D01*
X014700Y017200D01*
X014660Y017200D01*
X014660Y017680D01*
X014473Y017680D01*
X014180Y017387D01*
X013887Y017680D01*
X013700Y017680D01*
X013700Y017200D01*
X013660Y017200D01*
X013660Y017680D01*
X013473Y017680D01*
X013180Y017387D01*
X013180Y017200D01*
X013660Y017200D01*
X013660Y017160D01*
X013180Y017160D01*
X013180Y016973D01*
X013473Y016680D01*
X013660Y016680D01*
X013660Y017160D01*
X013700Y017160D01*
X013700Y017200D01*
X014180Y017200D01*
X014660Y017200D01*
X014660Y017160D01*
X014700Y017160D01*
X014700Y016680D01*
X014887Y016680D01*
X015166Y016959D01*
X015465Y016660D01*
X015895Y016660D01*
X016180Y016945D01*
X016465Y016660D01*
X016878Y016660D01*
X016768Y016550D01*
X008692Y016550D01*
X008700Y016664D02*
X015461Y016664D01*
X015302Y016823D02*
X015030Y016823D01*
X014700Y016823D02*
X014660Y016823D01*
X014660Y016680D02*
X014660Y017160D01*
X014180Y017160D01*
X013700Y017160D01*
X013700Y016680D01*
X013887Y016680D01*
X014180Y016973D01*
X014180Y017160D01*
X014180Y016973D01*
X014473Y016680D01*
X014660Y016680D01*
X014330Y016823D02*
X014030Y016823D01*
X014180Y016981D02*
X014180Y016981D01*
X014180Y017140D02*
X014180Y017140D01*
X014180Y017200D02*
X014180Y017387D01*
X014180Y017200D01*
X014180Y017298D02*
X014180Y017298D01*
X014111Y017457D02*
X014249Y017457D01*
X014408Y017615D02*
X013952Y017615D01*
X013700Y017615D02*
X013660Y017615D01*
X013660Y017457D02*
X013700Y017457D01*
X013700Y017298D02*
X013660Y017298D01*
X013660Y017140D02*
X013700Y017140D01*
X013700Y016981D02*
X013660Y016981D01*
X013660Y016823D02*
X013700Y016823D01*
X013330Y016823D02*
X013030Y016823D01*
X012887Y016680D02*
X013180Y016973D01*
X013180Y017160D01*
X012700Y017160D01*
X012700Y017200D01*
X012660Y017200D01*
X012660Y017680D01*
X012473Y017680D01*
X012180Y017387D01*
X012180Y017200D01*
X012660Y017200D01*
X012660Y017160D01*
X012180Y017160D01*
X012180Y016973D01*
X012473Y016680D01*
X012660Y016680D01*
X012660Y017160D01*
X012700Y017160D01*
X012700Y016680D01*
X012887Y016680D01*
X012700Y016823D02*
X012660Y016823D01*
X012660Y016981D02*
X012700Y016981D01*
X012700Y017140D02*
X012660Y017140D01*
X012700Y017200D02*
X013180Y017200D01*
X013180Y017387D01*
X012887Y017680D01*
X012700Y017680D01*
X012700Y017200D01*
X012700Y017298D02*
X012660Y017298D01*
X012660Y017457D02*
X012700Y017457D01*
X012700Y017615D02*
X012660Y017615D01*
X012408Y017615D02*
X008700Y017615D01*
X008700Y017774D02*
X016892Y017774D01*
X016380Y017615D02*
X015980Y017615D01*
X016139Y017457D02*
X016221Y017457D01*
X015380Y017615D02*
X014952Y017615D01*
X015111Y017457D02*
X015221Y017457D01*
X014700Y017457D02*
X014660Y017457D01*
X014660Y017615D02*
X014700Y017615D01*
X014700Y017298D02*
X014660Y017298D01*
X014660Y017140D02*
X014700Y017140D01*
X014700Y016981D02*
X014660Y016981D01*
X015899Y016664D02*
X016461Y016664D01*
X016302Y016823D02*
X016058Y016823D01*
X013408Y017615D02*
X012952Y017615D01*
X013111Y017457D02*
X013249Y017457D01*
X013180Y017298D02*
X013180Y017298D01*
X013180Y017140D02*
X013180Y017140D01*
X013180Y016981D02*
X013180Y016981D01*
X012330Y016823D02*
X008684Y016823D01*
X008614Y016981D02*
X012180Y016981D01*
X012180Y017140D02*
X008429Y017140D01*
X008533Y017298D02*
X012180Y017298D01*
X012249Y017457D02*
X008650Y017457D01*
X002773Y013494D02*
X002558Y013494D01*
X002645Y013336D02*
X002692Y013336D01*
X002670Y013177D02*
X002195Y013177D01*
X002195Y013165D02*
X002670Y013165D01*
X002670Y013141D01*
X002658Y013065D01*
X002634Y012992D01*
X002599Y012923D01*
X002554Y012861D01*
X002499Y012806D01*
X002437Y012761D01*
X002368Y012726D01*
X002295Y012702D01*
X002219Y012690D01*
X002195Y012690D01*
X002195Y013165D01*
X002165Y013165D02*
X002165Y012690D01*
X002141Y012690D01*
X002065Y012702D01*
X001992Y012726D01*
X001923Y012761D01*
X001861Y012806D01*
X001806Y012861D01*
X001761Y012923D01*
X001726Y012992D01*
X001702Y013065D01*
X001690Y013141D01*
X001690Y013165D01*
X002165Y013165D01*
X002165Y013177D02*
X001690Y013177D01*
X001668Y013336D02*
X001715Y013336D01*
X001802Y013494D02*
X001587Y013494D01*
X001665Y013019D02*
X001717Y013019D01*
X001807Y012860D02*
X001581Y012860D01*
X001358Y012702D02*
X002069Y012702D01*
X002165Y012702D02*
X002195Y012702D01*
X002291Y012702D02*
X003002Y012702D01*
X002779Y012860D02*
X002553Y012860D01*
X002643Y013019D02*
X002695Y013019D01*
X002195Y013019D02*
X002165Y013019D01*
X002165Y012860D02*
X002195Y012860D01*
X001002Y012702D02*
X000500Y012702D01*
X000500Y012860D02*
X000779Y012860D01*
X000695Y013019D02*
X000500Y013019D01*
X000500Y013177D02*
X000670Y013177D01*
X000692Y013336D02*
X000500Y013336D01*
X000500Y013494D02*
X000773Y013494D01*
X009632Y005886D02*
X009728Y005886D01*
X009887Y005728D02*
X009473Y005728D01*
X010473Y005728D02*
X010887Y005728D01*
X010728Y005886D02*
X010632Y005886D01*
X011473Y005728D02*
X011887Y005728D01*
X011728Y005886D02*
X011632Y005886D01*
X012473Y005728D02*
X012887Y005728D01*
X012728Y005886D02*
X012632Y005886D01*
X013473Y005728D02*
X013887Y005728D01*
X013728Y005886D02*
X013632Y005886D01*
X017191Y007154D02*
X019169Y007154D01*
X019109Y007313D02*
X017251Y007313D01*
X017251Y007471D02*
X019109Y007471D01*
X019109Y007630D02*
X017251Y007630D01*
X017251Y007788D02*
X019109Y007788D01*
X019109Y007947D02*
X017251Y007947D01*
X017251Y008105D02*
X019109Y008105D01*
X019109Y008264D02*
X017251Y008264D01*
X017251Y008422D02*
X019109Y008422D01*
X019109Y008581D02*
X017251Y008581D01*
X017178Y008739D02*
X019182Y008739D01*
X018717Y011434D02*
X018653Y011434D01*
X018521Y011592D02*
X018861Y011592D01*
X021639Y006203D02*
X021721Y006203D01*
X021509Y005569D02*
X019510Y005569D01*
X019629Y005411D02*
X021668Y005411D01*
X021659Y005252D02*
X019676Y005252D01*
X019673Y005094D02*
X021659Y005094D01*
X021718Y004935D02*
X019617Y004935D01*
X019482Y004777D02*
X021845Y004777D01*
X022547Y004777D02*
X022829Y004777D01*
X022702Y004935D02*
X022673Y004935D01*
X018711Y004935D02*
X018658Y004935D01*
X006910Y003192D02*
X006750Y003192D01*
X006751Y003033D02*
X006715Y003033D01*
X005824Y002780D02*
X005697Y002653D01*
X005610Y002443D01*
X005610Y002217D01*
X005697Y002007D01*
X005727Y001977D01*
X005665Y001951D01*
X005409Y001695D01*
X005270Y001361D01*
X005270Y000999D01*
X005409Y000665D01*
X005573Y000500D01*
X000500Y000500D01*
X000500Y000656D02*
X005418Y000656D01*
X005347Y000814D02*
X000500Y000814D01*
X000500Y000973D02*
X005281Y000973D01*
X005270Y001131D02*
X000500Y001131D01*
X000500Y001290D02*
X005270Y001290D01*
X005306Y001448D02*
X000500Y001448D01*
X000500Y001607D02*
X005372Y001607D01*
X005478Y001765D02*
X005071Y001765D01*
X005003Y001697D02*
X005163Y001857D01*
X005250Y002067D01*
X005250Y002293D01*
X005228Y002346D01*
X005692Y002810D01*
X005794Y002810D01*
X005824Y002780D01*
X005760Y002716D02*
X005598Y002716D01*
X005657Y002558D02*
X005439Y002558D01*
X005281Y002399D02*
X005610Y002399D01*
X005610Y002241D02*
X005250Y002241D01*
X005250Y002082D02*
X005666Y002082D01*
X005637Y001924D02*
X005191Y001924D01*
X005003Y001697D02*
X004793Y001610D01*
X004567Y001610D01*
X004357Y001697D01*
X004197Y001857D01*
X004168Y001926D01*
X004150Y001892D01*
X004100Y001822D01*
X004038Y001760D01*
X003968Y001710D01*
X003891Y001670D01*
X003809Y001644D01*
X003723Y001630D01*
X003680Y001630D01*
X003680Y002180D01*
X003680Y002180D01*
X003680Y002730D01*
X003723Y002730D01*
X003809Y002716D01*
X003891Y002690D01*
X003968Y002650D01*
X004038Y002600D01*
X004100Y002538D01*
X004150Y002468D01*
X004168Y002434D01*
X004197Y002503D01*
X004357Y002663D01*
X004567Y002750D01*
X004793Y002750D01*
X004846Y002728D01*
X005351Y003233D01*
X005151Y003033D02*
X000500Y003033D01*
X000500Y002875D02*
X004993Y002875D01*
X004485Y002716D02*
X003810Y002716D01*
X003680Y002716D02*
X003680Y002716D01*
X003680Y002730D02*
X003637Y002730D01*
X003551Y002716D01*
X003469Y002690D01*
X003392Y002650D01*
X003322Y002600D01*
X003260Y002538D01*
X003210Y002468D01*
X003170Y002391D01*
X003144Y002309D01*
X003130Y002223D01*
X003130Y002180D01*
X003680Y002180D01*
X003680Y002180D01*
X003680Y002180D01*
X003680Y002730D01*
X003550Y002716D02*
X002310Y002716D01*
X002309Y002716D02*
X002223Y002730D01*
X002180Y002730D01*
X002180Y002180D01*
X002730Y002180D01*
X002730Y002223D01*
X002716Y002309D01*
X002690Y002391D01*
X002650Y002468D01*
X002600Y002538D01*
X002538Y002600D01*
X002468Y002650D01*
X002391Y002690D01*
X002309Y002716D01*
X002180Y002716D02*
X002180Y002716D01*
X002180Y002730D02*
X002137Y002730D01*
X002051Y002716D01*
X001969Y002690D01*
X001892Y002650D01*
X001822Y002600D01*
X001760Y002538D01*
X001710Y002468D01*
X001692Y002434D01*
X001663Y002503D01*
X001503Y002663D01*
X001293Y002750D01*
X001067Y002750D01*
X000857Y002663D01*
X000697Y002503D01*
X000610Y002293D01*
X000610Y002067D01*
X000697Y001857D01*
X000857Y001697D01*
X001067Y001610D01*
X001293Y001610D01*
X001503Y001697D01*
X001663Y001857D01*
X001692Y001926D01*
X001710Y001892D01*
X001760Y001822D01*
X001822Y001760D01*
X001892Y001710D01*
X001969Y001670D01*
X002051Y001644D01*
X002137Y001630D01*
X002180Y001630D01*
X002223Y001630D01*
X002309Y001644D01*
X002391Y001670D01*
X002468Y001710D01*
X002538Y001760D01*
X002600Y001822D01*
X002650Y001892D01*
X002690Y001969D01*
X002716Y002051D01*
X002730Y002137D01*
X002730Y002180D01*
X002180Y002180D01*
X002180Y002180D01*
X002180Y002180D01*
X002180Y001630D01*
X002180Y002180D01*
X002180Y002180D01*
X002180Y002730D01*
X002050Y002716D02*
X001375Y002716D01*
X001609Y002558D02*
X001780Y002558D01*
X002180Y002558D02*
X002180Y002558D01*
X002180Y002399D02*
X002180Y002399D01*
X002180Y002241D02*
X002180Y002241D01*
X002180Y002082D02*
X002180Y002082D01*
X002180Y001924D02*
X002180Y001924D01*
X002180Y001765D02*
X002180Y001765D01*
X002543Y001765D02*
X003317Y001765D01*
X003322Y001760D02*
X003392Y001710D01*
X003469Y001670D01*
X003551Y001644D01*
X003637Y001630D01*
X003680Y001630D01*
X003680Y002180D01*
X003130Y002180D01*
X003130Y002137D01*
X003144Y002051D01*
X003170Y001969D01*
X003210Y001892D01*
X003260Y001822D01*
X003322Y001760D01*
X003193Y001924D02*
X002667Y001924D01*
X002721Y002082D02*
X003139Y002082D01*
X003133Y002241D02*
X002727Y002241D01*
X002686Y002399D02*
X003174Y002399D01*
X003280Y002558D02*
X002580Y002558D01*
X001693Y001924D02*
X001691Y001924D01*
X001571Y001765D02*
X001817Y001765D01*
X000789Y001765D02*
X000500Y001765D01*
X000500Y001924D02*
X000669Y001924D01*
X000610Y002082D02*
X000500Y002082D01*
X000500Y002241D02*
X000610Y002241D01*
X000654Y002399D02*
X000500Y002399D01*
X000500Y002558D02*
X000751Y002558D01*
X000985Y002716D02*
X000500Y002716D01*
X003680Y002558D02*
X003680Y002558D01*
X003680Y002399D02*
X003680Y002399D01*
X003680Y002241D02*
X003680Y002241D01*
X003680Y002082D02*
X003680Y002082D01*
X003680Y001924D02*
X003680Y001924D01*
X003680Y001765D02*
X003680Y001765D01*
X004043Y001765D02*
X004289Y001765D01*
X004169Y001924D02*
X004167Y001924D01*
X004080Y002558D02*
X004251Y002558D01*
X034512Y000656D02*
X035848Y000656D01*
X035694Y000814D02*
X035570Y000814D01*
X034790Y000814D02*
X034666Y000814D01*
X035610Y001607D02*
X035850Y001607D01*
X035378Y001765D02*
X037478Y001765D01*
X037372Y001607D02*
X036510Y001607D01*
X036665Y001448D02*
X037306Y001448D01*
X037270Y001290D02*
X036731Y001290D01*
X036750Y001131D02*
X037270Y001131D01*
X037281Y000973D02*
X036732Y000973D01*
X036666Y000814D02*
X037347Y000814D01*
X037418Y000656D02*
X036512Y000656D01*
X037637Y001924D02*
X035250Y001924D01*
X035250Y002082D02*
X037980Y002082D01*
X038380Y002082D02*
X039860Y002082D01*
X039860Y001924D02*
X038723Y001924D01*
X038882Y001765D02*
X039812Y001765D01*
X039654Y001607D02*
X038988Y001607D01*
X039054Y001448D02*
X039495Y001448D01*
X039337Y001290D02*
X039090Y001290D01*
X039090Y001131D02*
X039178Y001131D01*
X039860Y002241D02*
X035250Y002241D01*
X035250Y002399D02*
X039860Y002399D01*
X039860Y002558D02*
X035250Y002558D01*
X035250Y002716D02*
X036813Y002716D01*
X036652Y002875D02*
X035250Y002875D01*
X035250Y003033D02*
X036579Y003033D01*
X037090Y003033D02*
X037130Y003033D01*
X037130Y002875D02*
X037090Y002875D01*
X037090Y002716D02*
X037130Y002716D01*
X037407Y002716D02*
X037953Y002716D01*
X037792Y002875D02*
X037568Y002875D01*
X037641Y003033D02*
X037719Y003033D01*
X038230Y003033D02*
X038270Y003033D01*
X038270Y002875D02*
X038230Y002875D01*
X038230Y002716D02*
X038270Y002716D01*
X038547Y002716D02*
X039860Y002716D01*
X039860Y002875D02*
X038708Y002875D01*
X038781Y003033D02*
X039860Y003033D01*
X037879Y003667D02*
X037381Y003667D01*
X037551Y003509D02*
X037809Y003509D01*
X037727Y003350D02*
X037633Y003350D01*
X037582Y003826D02*
X037678Y003826D01*
X016154Y020627D02*
X016090Y020627D01*
D22*
X017880Y018780D03*
X018880Y018480D03*
X021680Y019280D03*
X023180Y019280D03*
X021880Y017980D03*
X019380Y015880D03*
X015080Y014980D03*
X008880Y014980D03*
X013380Y011080D03*
X021680Y012280D03*
X024380Y006480D03*
X016280Y004980D03*
X028380Y018280D03*
M02*
